<?xml version="1.0" encoding="utf-8"?>
<!-- Generator: Adobe Illustrator 27.0.0, SVG Export Plug-In . SVG Version: 6.00 Build 0)  -->
<svg version="1.1" id="Layer_1" xmlns="http://www.w3.org/2000/svg" xmlns:xlink="http://www.w3.org/1999/xlink" x="0px" y="0px"
	 viewBox="0 0 300 300" style="enable-background:new 0 0 300 300;" xml:space="preserve">
<style type="text/css">
	.st0{fill:#FFFFFF;}
	.st1{fill:#FFB578;}
	.st2{fill:#FF781A;}
	.st3{fill:url(#SVGID_1_);}
	.st4{fill:url(#SVGID_00000021077474924593226110000007344565779402394790_);}
	.st5{fill:url(#SVGID_00000027571999744899176200000005465204140610444182_);}
	.st6{fill:url(#SVGID_00000022544358618790282760000006570286965106576289_);}
	.st7{fill:url(#SVGID_00000052101356398609724490000017406671145114709660_);}
	.st8{fill:#4E4B51;}
	.st9{fill:#BF6F36;}
	.st10{fill:#F5F83B;}
	.st11{fill:#FFAE66;}
	.st12{fill:#FBFCCC;}
	.st13{fill:#D23C0B;}
	.st14{fill:#0242D9;}
	.st15{fill:#082864;}
	.st16{fill:#042C5F;}
	.st17{fill:#072D67;}
	.st18{fill:#0035C7;}
	.st19{fill:#062677;}
	.st20{fill:#022965;}
	.st21{fill:none;}
	.st22{fill:#FFB97E;}
	.st23{fill:#0038CD;}
	.st24{fill:#002967;}
	.st25{fill:#0634D6;}
	.st26{fill:#0F38BF;}
	.st27{fill:#07266D;}
	.st28{fill:none;stroke:#000000;stroke-miterlimit:10;}
	.st29{fill:#BE6A2F;}
	.st30{fill:#D6CED6;}
	.st31{fill:#EF060F;}
</style>
<g id="Слой_10">
	<path class="st0" d="M106.6,14.1l1.7,0.4c0.3,0.1,27.9,5.9,41.2,27.7c0.7-4.8,3.5-19.6,10.8-23.1l0.9-0.4l-0.2,1
		c0,0.2-3.4,18.7-1.8,30.4c3.8,0.1,29.9,1.8,36.7,31.2L224.5,66l-16.9,21.6l30.5-9.7l-30.4,28.3l20-5.5L207,115.6h9.7l-19.2,6.7
		c2.8,1.9,11.4,8.7,9.5,18c0,0.7,0.4,6.4-0.4,9.2c0.4,1.4,3.2,12.6-0.1,18.2c0.2,1.4,1.1,10.3-1.8,15.3c2.8-0.4,5.7-0.6,8.5-0.6
		c1.3,0,2.7,0.1,4,0.4l0.9,0.3l-0.7,0.6c-0.6,0.5-4.5,6.5-4.7,8.2c0.2,0.9,1.9,7.7-3.7,12.6l-0.3,0.2l-0.3-0.2
		c-2.2-1.4-4.7-2.2-7.3-2.4c2.4,3,10.2,13.6,10.2,24.2c0.6,1.6,7.9,22.7-5.6,31.8c1,2.1,5.6,11.5,6.2,17.3c0.4,3.6,0.3,8.3-2.2,9.9
		c-0.6,0.4-1.3,0.6-2,0.6c-1.3-0.1-2.6-0.5-3.8-1.2c-5.5-3-7.4-8.8-8.6-12.1c-0.2-0.6-0.4-1.3-0.7-1.9c-0.6-1-1.3-2-2-2.9
		c-1.7-2.3-3.6-4.8-3.6-6.8c-1.1-0.6-1.8-1.6-2-2.8c-1.7-0.9-10.4-5.5-9.3-11.6l-1.7-2.2c-1.9,1.8-10.3,9-24.7,9
		c-2.3,0-4.6-0.2-6.9-0.5c-0.5-0.1-12.2-2.8-19.2-10.7c-1.3,0.2-2.6,0.3-3.9,0.3c-1.6,0.1-3.2-0.2-4.6-0.9c-1,0.2-2.1,0.3-3.1,0.3
		c-2.1,0-4.8-0.5-6.5-2.6c-1.1-0.2-5.6-1.4-9.2-8.2c-4.1-7.8-3.8-12.5-1.7-19.6c2-6.8,5.2-9.8,5.8-10.3c0.5-0.9,1-1.7,1.6-2.6
		c0.9-1,1.9-1.9,3.1-2.6l1.3-1.2l-1.1-3.1c-0.9,0.4-1.9,0.5-2.8,0.5h-0.4c-2.8-0.1-4.2-3-4.5-3.6c-0.8-0.7-5.8-5.1-2.7-9.9
		c1.1-2,3.2-3.2,5.4-3.2c0.8,0,1.7,0.2,2.5,0.4l0.1-0.3c-1.7-3-2.9-6.3-3.6-9.7c-0.3-2.1-0.3-4.3,0.2-6.4c0.3-1,0.3-2.2,0.1-3.2
		c-0.6-2.3-1.1-4.7-1.2-7.1c-6.3-11.1,1.2-18.6,4.3-21.2H85.6l0.9-0.9c2-1.9,11.4-7.9,14.4-9.7l-39-14.2l0.5-0.6
		c7.5-8.4,34.5-12.7,39.4-13.4C85.4,59.8,67.2,44.2,67,44l-0.6-0.5l0.7-0.3c0.2-0.1,8.7-4.2,22-4.2c10.2,0,23.2,2.4,37.3,11
		c-1.7-5.3-8.7-25.5-18.6-34.8L106.6,14.1 M128.2,52.3l-1.1-0.7C112.7,42.5,99.5,40,89.1,40c-7.1-0.1-14.2,1.2-20.9,3.8
		c3.3,3,19.9,18.6,34.8,45.7l0.3,0.6l-0.7,0.1c-0.3,0-30.5,4.2-39,12.6l39.5,14.3l-0.9,0.5c-0.1,0.1-10.3,6.4-14.1,9.3h19.4
		l-1.5,0.9c-0.5,0.3-12.7,7.8-5.2,20.8l0.1,0.2c0.2,2.3,0.6,4.7,1.2,6.9c0.3,1.2,0.3,2.5,0,3.7c-0.5,2-0.5,4-0.2,6
		c0.7,3.3,1.9,6.6,3.6,9.5l0.1,0.2l-0.4,1.9l-0.6-0.3c-0.8-0.4-1.7-0.6-2.6-0.6c-1.9,0-3.7,1.1-4.6,2.8c-2.8,4.4,2.5,8.6,2.6,8.7
		l0.1,0.1l0.1,0.1c0,0,1.3,3.1,3.7,3.1h0.4c0.9,0.1,1.8-0.1,2.6-0.5c0.1-0.1,0.3-0.1,0.4-0.1h0.2c0.2,0.1,0.3,0.2,0.4,0.4l1.5,4.1
		l-2,1.8c-1.1,0.6-2.1,1.4-2.9,2.3c-0.6,0.8-1.1,1.6-1.6,2.5l-0.1,0.2c0,0-3.5,2.9-5.6,9.8s-2.3,11.4,1.7,18.9
		c3.7,7.1,8.6,7.7,8.6,7.7h0.2l0.1,0.2c1.5,1.9,3.9,2.4,5.9,2.4c1,0,2.1-0.1,3.1-0.3l0.2-0.1l0.2,0.2c0.8,0.7,2.5,0.9,4.2,0.9
		c1.3,0,2.7-0.1,4-0.3l0.3-0.1l0.2,0.2c6.7,7.9,18.6,10.6,18.8,10.6c2.2,0.3,4.5,0.5,6.7,0.5c15.9,0,24.3-8.9,24.4-9l0.4-0.4
		l2.8,3.5l-0.1,0.2c-1.3,6,8.9,10.9,9,10.9l0.3,0.1v0.4c0,1.5,1.7,2.4,1.7,2.4l0.3,0.1v0.3c-0.1,1.6,1.8,4.3,3.4,6.4
		c0.8,0.9,1.5,1.9,2.1,3c0.3,0.7,0.5,1.3,0.7,2c1.1,3.3,2.9,8.7,8.1,11.6c1,0.6,2.1,1,3.3,1c0.5,0,1-0.1,1.5-0.4
		c1.6-1.1,2.3-4.4,1.8-9c-0.6-6.3-6.2-17.3-6.3-17.4l-0.2-0.4l0.4-0.2c13.8-8.8,5.6-30.7,5.6-30.9v-0.2c0-12-10.6-24.4-10.7-24.5
		l-0.7-0.8h1.1h0.4c2.9,0.1,5.8,0.9,8.3,2.4c5.1-4.8,3.1-11.3,3.1-11.4V192v-0.1c0.1-1.6,3.1-6.4,4.5-8.3c-1-0.1-1.9-0.2-2.9-0.2
		c-3.2,0.1-6.4,0.3-9.6,0.8l-1.2,0.2l0.8-1c3.7-4.7,2.3-15.6,2.2-15.7v-0.2l0.1-0.1c3.3-5.5,0.1-17.6,0-17.7v-0.1v-0.1
		c0.8-2.6,0.4-8.9,0.3-9v-0.1c2.2-10.4-9.8-17.5-9.9-17.6l-0.9-0.6l15.6-5.5h-6.9l18.7-13.5l-18.5,5.1l30.1-28l-29.4,9.3l16-20.5
		l-25.6,13.5L195,82c-6.6-30.2-33.9-31-36.1-31h-0.6l-0.1-0.4c-1.5-10.2,0.9-25.9,1.6-30.1c-7.2,4.8-9.5,23.1-9.5,23.2l-0.2,1.5
		l-0.8-1.3c-11-19.3-33.3-26.4-39.6-28.1c10.8,11.5,17.9,35,18,35.2L128.2,52.3 M161.2,18.6L161.2,18.6 M224.5,66L224.5,66
		 M238.1,78L238.1,78 M227.7,100.7L227.7,100.7 M216.7,115.7L216.7,115.7 M107.6,127L107.6,127 M106.6,4c-5.5,0-10,4.5-10,10
		c0,2.7,1.1,5.4,3.1,7.3l1.3,1.2c2.5,2.6,4.7,5.5,6.5,8.7c-6-1.5-12.2-2.2-18.3-2.2c-15.7,0-26,5-26.4,5.2L62,34.6
		c-4.9,2.5-7,8.5-4.5,13.4c0.6,1.2,1.5,2.3,2.5,3.2l0.6,0.5c0.1,0.1,12.2,10.7,25.2,30.5C74,84.8,61,89.2,54.9,96.1l-0.5,0.6
		c-3.6,4.1-3.2,10.5,0.9,14.1c0.9,0.8,2,1.5,3.2,1.9l20.8,7.6l-0.6,0.5c-4,3.8-4.2,10.1-0.4,14.1c1.9,2,4.5,3.1,7.2,3.1h2
		c-0.5,4.8,0.4,9.7,2.6,14.1c0.2,1.9,0.5,3.9,1,5.8c-0.7,3.2-0.7,6.4-0.2,9.6c0.1,0.6,0.2,1.3,0.4,1.9c-1.3,1.1-2.4,2.5-3.3,3.9
		c-4.4,6.9-3.1,15.3,3.2,21.5c0.4,0.6,0.8,1.2,1.3,1.8c-2.8,3.6-4.8,7.6-6,12c-2.6,8.9-3.1,16.5,2.5,27.1c4,7.6,9.2,10.9,12.9,12.4
		c3.4,2.6,7.5,3.9,11.7,3.8c0.7,0,1.3,0,2-0.1c1.9,0.5,3.8,0.7,5.8,0.7h0.2c6.1,4.9,13.2,8.4,20.8,10.2c0.2,0,0.4,0.1,0.6,0.1
		c2.8,0.4,5.5,0.6,8.3,0.6c7.1,0.1,14.2-1.4,20.6-4.4c2.1,2.6,4.7,4.8,7.6,6.5c0.2,0.3,0.4,0.6,0.7,0.9c1.2,2.7,2.7,5.2,4.6,7.5
		c0.3,0.4,0.7,0.9,1,1.3l0.2,0.6c1.4,4.2,4.3,12.9,13.2,17.8c2.6,1.5,5.6,2.3,8.6,2.4c2.7,0,5.3-0.8,7.6-2.2
		c5.4-3.6,7.6-10.1,6.6-19.3c-0.5-4.4-2.3-9.7-4.1-14c4.2-5.6,6.3-12.9,6.1-21.3c-0.2-4.9-1-9.8-2.5-14.5c-0.4-5-1.6-9.9-3.7-14.4
		c4-4.6,6-10.7,5.5-16.8c0.5-0.9,1.1-1.9,1.6-2.5c4.2-3.6,4.7-9.9,1.1-14.1c-1.2-1.4-2.8-2.5-4.7-3.1l-0.9-0.3
		c-1.1-0.3-2.2-0.6-3.3-0.7c0-1.2,0-2.3-0.1-3.3c2.4-6.9,1.2-15.2,0.1-20.1c0.3-2.8,0.4-5.5,0.2-8.3c0.6-4.8-0.2-9.7-2.4-14l5-1.8
		c0.9-0.3,1.8-0.7,2.6-1.3c0.5-0.4,1-0.8,1.4-1.2c1.8-1.9,2.9-4.4,2.9-7c0-0.6-0.1-1.2-0.2-1.8l6.9-5c0.5-0.3,0.9-0.7,1.4-1.2
		c0.2-0.2,0.3-0.3,0.5-0.5c3.2-3.7,3.2-9.2,0.1-13l9.5-8.8c4.1-3.7,4.4-10,0.7-14.1c-1.7-1.9-4.1-3.1-6.6-3.3c-0.3,0-0.5,0-0.8,0
		c-0.4,0-0.7,0-1.1,0c-0.7,0.1-1.4,0.2-2.1,0.5l-0.8,0.2c0.3-0.9,0.4-1.8,0.4-2.7c0-5.4-4.2-9.8-9.6-10h-0.4c-0.4,0-0.8,0-1.3,0.1
		c-1.3,0.2-2.5,0.6-3.6,1.2l-18.2,9.6c-4.3-9.1-11.5-16.5-20.4-21.2c-3.9-2-8-3.5-12.3-4.5c0.2-6.7,0.9-13.3,2.1-19.8l0.1-0.6
		c1.2-5.4-2.2-10.7-7.6-11.9c-0.7-0.1-1.4-0.2-2-0.2h-0.4c-1.5,0-2.9,0.4-4.2,1.1L156,10c-4.8,2.3-8.3,6.7-10.9,11.8
		c-10.1-8.4-22-14.3-34.8-17.3l-1.7-0.3C108,4.1,107.3,4,106.6,4L106.6,4z M128.2,62.3c5.5,0,10-4.5,10-10c0-1-0.1-1.9-0.4-2.9
		l-0.4-1.3c-0.1-0.3-0.9-3-2.4-7c2.2,2.3,4.1,4.8,5.7,7.6l0.8,1.3c1.6,2.8,4.5,4.7,7.8,5c1.6,3.5,5.2,5.8,9.1,5.8h0.7
		c4.2,0.2,8.2,1.3,11.9,3.1c7.5,3.8,12.3,10.5,14.4,20l0.1,0.6c0.6,3.1,2.7,5.7,5.6,7c1.3,0.6,2.8,0.9,4.2,0.9h0.1
		c0.8,2.4,2.5,4.5,4.8,5.7l-2.8,2.6c-2.9,2.7-4,7-2.6,10.8l-2.7,1c-5.2,1.8-8,7.5-6.1,12.7c0.8,2.2,2.3,4.1,4.4,5.3l0.9,0.5
		c2,1.3,5.7,4.7,5.2,7v0.1c-0.2,0.9-0.3,1.8-0.2,2.8v0.1c0.1,1.8,0.1,3.7,0,5.5c-0.5,1.8-0.6,3.7-0.1,5.5v0.1
		c1,3.7,1.4,8.5,0.9,10.2c-1.2,2-1.6,4.2-1.3,6.5v0.1c0.4,3,0.2,7-0.4,8.4l-0.6,0.8c-2.5,3.2-2.9,7.6-0.8,11.2
		c0.5,0.8,1.1,1.6,1.8,2.3c-5.2,1.8-8,7.5-6.2,12.7c0.4,1.2,1.1,2.3,1.9,3.3l0.7,0.8c2.1,2.6,8.3,11.3,8.3,18c0,0.6,0.1,1.2,0.2,1.8
		v0.2c0.1,0.6,0.3,1.1,0.6,1.6c1.1,3.1,4.2,15.4-1.6,19l-0.4,0.2c-1.1,0.7-2,1.6-2.8,2.6c-1-1.4-2.4-2.6-3.9-3.3l-0.2-0.1
		c-1.2-0.6-2.3-1.3-3.3-2.1c0-2.2-0.8-4.4-2.2-6.2l-2.8-3.5c-1.8-2.3-4.6-3.7-7.5-3.8H176c-2.8,0-5.5,1.2-7.4,3.3l-0.3,0.3
		c-0.6,0.6-6.4,5.9-17.1,5.9c-1.6,0-3.2-0.1-4.8-0.3c-2.7-0.7-9.5-3.1-13.1-7.2l-0.2-0.2c-1.9-2.2-4.7-3.5-7.6-3.5
		c-0.5,0-1.1,0-1.6,0.1l-0.3,0.1c-0.8,0.1-1.6,0.2-2.4,0.2c-1.4-0.7-2.9-1-4.4-1c-0.9,0-1.7,0.1-2.6,0.3h-0.1
		c-1.3-1.2-2.9-2-4.6-2.3c-0.9-0.7-1.5-1.6-2-2.6c-2.5-4.6-2.4-6.4-0.9-11.4c0.5-1.9,1.4-3.6,2.6-5.1c0.4-0.4,0.8-0.7,1.1-1.1
		l0.1-0.2c0.4-0.5,0.8-1.1,1.1-1.7c0.1-0.1,0.2-0.4,0.4-0.7h0.1l0,0c0.7-0.4,1.3-0.9,1.9-1.4l2-1.8c2.9-2.7,3.9-6.9,2.6-10.7
		l-1.5-4.1c-0.7-1.9-2-3.6-3.6-4.9c0.6-1,1.1-2,1.3-3.1l0.4-1.9c0.6-2.5,0.2-5.2-1.2-7.4l-0.1-0.1c-1.1-1.9-1.8-3.9-2.3-6.1
		c-0.1-0.9-0.1-1.7,0.2-2.6c0.7-2.9,0.6-6-0.4-8.9c-0.3-1.5-0.6-2.9-0.7-4.4c-0.1-0.7-0.2-1.5-0.4-2.2l-0.1-0.2
		c-0.2-0.7-0.5-1.4-0.9-2c-1.7-2.9-1-4.1-0.7-4.8c0.6-1,1.4-1.9,2.4-2.5l1.3-0.8c4.8-2.8,6.4-8.9,3.7-13.7c-0.8-1.4-1.9-2.5-3.2-3.4
		c0.7-4.7-2-9.2-6.5-10.9l-14.9-5.4c4.1-0.9,8.4-1.7,12.4-2.2l0.7-0.1c5.5-0.7,9.3-5.8,8.6-11.2c-0.2-1.2-0.6-2.4-1.2-3.5l-0.3-0.6
		C105.1,72.3,97.1,60.7,88,50h1.2c11.1,0,22.1,3.4,32.6,10.1l1.1,0.7C124.5,61.8,126.4,62.3,128.2,62.3L128.2,62.3z"/>
</g>
<g id="Слой_8">
	<path class="st1" d="M102.4,201.5c0,0-3.6,2.9-5.7,10.1s-2.2,11.8,1.7,19.2s9,8,9,8c3,3.9,9.4,2.2,9.4,2.2c2.1,1.7,8.6,0.6,8.6,0.6
		c6.9,8.1,19,10.7,19,10.7c20.8,3.1,31.5-8.7,31.5-8.7l2.3,2.9c-1.4,6.4,9.3,11.4,9.3,11.4c0,1.8,2,2.8,2,2.8
		c-0.2,2.8,4.4,7.4,5.5,9.7s2.3,10.1,9,13.8s7.9-2.4,7.3-8.9s-6.3-17.5-6.3-17.5c14.3-9.1,5.8-31.5,5.8-31.5
		c0-12.3-10.8-24.8-10.8-24.8c3.1,0,6.1,0.9,8.7,2.5c5.7-5,3.5-12.2,3.5-12.2c0.1-1.8,4.4-8.2,4.9-8.6c-3.3-1-13.4,0.4-13.4,0.4
		c3.9-4.9,2.4-16.1,2.4-16.1c3.5-5.8,0.1-18.1,0.1-18.1c0.9-2.7,0.4-9.2,0.4-9.2c2.3-10.9-10.1-18.1-10.1-18.1l17.3-6.1h-8.3
		l19.7-14.2l-19.3,5.3l30.2-28.2l-29.9,9.5l16.4-21l-27.1,14.3c-7-32.2-36.7-31.4-36.7-31.4c-1.8-11.9,1.8-31,1.8-31
		c-8.3,4-10.7,24.1-10.7,24.1c-13-23-41.6-28.7-41.6-28.7c11.6,10.9,19.1,36.3,19.1,36.3c-33-20.9-60-7.6-60-7.6
		s18.5,15.7,35.3,46.1c0,0-31.9,4.3-39.9,13.3l39.3,14.3c0,0-12.9,8.1-15.2,10.2h19c0,0-13.2,7.9-5.4,21.5c0.2,2.4,0.6,4.8,1.2,7.1
		c0.8,2.4-1.1,4.6-0.3,9.7c0.7,3.4,1.9,6.7,3.6,9.7l-0.3,1.1c-2.8-1.5-6.3-0.4-7.8,2.4c-3.1,4.9,2.7,9.4,2.7,9.4s1.3,3.4,4.1,3.4
		c1.1,0.2,2.3-0.1,3.3-0.6c0.1,0,0.1,0,0.2,0c0,0,0,0,0,0l1.4,3.8l-1.6,1.5c-1.1,0.6-2.2,1.5-3,2.4
		C103.5,199.8,102.9,200.6,102.4,201.5z"/>
</g>
<g id="Слой_9">
	<path class="st2" d="M98,140.9c0,0,8.5-7.4,9-7.4s9.6,1.7,12.7,5.3c2.2,2.7,4.3,5.6,6.2,8.6l1.4,3.5v1.6l2.9,5.4l2.2,5.2l0.7,2
		l-0.1,3.1l5.2,5.1l2.6-0.8l1.2-1.2l0.8-1.6l1.3-0.6l1.9-2.2l1.8-3l-4.6-2.3l-8.5-11.3l-1.3-2.7l-3.6-2l-4.7-10l-4.8-0.1l-11.2-5.4
		l-3-3.1l-2.6,3.1l-3.7,4.2l-1.3,3.5L98,140.9z"/>
	<polygon class="st2" points="175.6,141.9 168.7,156.7 162.8,161.5 154.9,165.1 155.9,169.2 160.5,168.2 164.1,170.6 165.7,174.3 
		168.6,174.7 173.1,167.4 176.2,162.2 175.6,155.2 177.4,149.1 180.9,143.1 193.1,133.1 205.2,131.4 202.4,127.3 199.6,125 
		196.4,122.2 193.1,123.8 190,128 186.5,131.4 183.3,133.4 180.5,134.2 179.1,134.4 177.4,139.4 	"/>
	<path class="st2" d="M102.4,201.5l0.3,5.8l2.3,3.2l2.8,2l3.4,1.7l1.1,5.6l2.6,5l1.3,0.8c0.9,2.6,2,5.1,3.1,7.6
		c1,1.8,4.8,6.8,4.8,6.8l0.8,2l-2.7-0.1l-5.2-0.7h-5.3l-3.1-1.1l-1.2-1.1l-7.3-8.2l-2.2-16.4L102.4,201.5z"/>
	<polygon class="st2" points="197.2,202.6 194.9,207.5 194.2,212.2 192.6,214.2 191.2,215.3 188.3,215.4 184.9,230.1 180.6,237.5 
		176,242.5 179.3,247.3 182.3,253.8 188.9,257.6 189.2,260.5 192.6,260.1 197.1,262.8 203.3,258.5 208.4,252.6 210.4,238.5 
		209.9,225.3 205.7,216.4 	"/>
	
		<linearGradient id="SVGID_1_" gradientUnits="userSpaceOnUse" x1="151.1175" y1="117.96" x2="152.0275" y2="53.84" gradientTransform="matrix(1 0 0 -1 0 302.12)">
		<stop  offset="0" style="stop-color:#FBA811"/>
		<stop  offset="1" style="stop-color:#F16A0E"/>
	</linearGradient>
	<circle class="st3" cx="151.6" cy="216.8" r="35.6"/>
	
		<linearGradient id="SVGID_00000112611598535033945240000012098584337814198946_" gradientUnits="userSpaceOnUse" x1="153.8734" y1="109.9403" x2="151.1334" y2="55.4103" gradientTransform="matrix(1 0 0 -1 0 302.12)">
		<stop  offset="0" style="stop-color:#FD660B"/>
		<stop  offset="0.41" style="stop-color:#FB650B"/>
		<stop  offset="0.58" style="stop-color:#F4630B"/>
		<stop  offset="0.7" style="stop-color:#E85E0C"/>
		<stop  offset="0.79" style="stop-color:#D7580C"/>
		<stop  offset="0.88" style="stop-color:#C04F0D"/>
		<stop  offset="0.95" style="stop-color:#A5450D"/>
		<stop  offset="1" style="stop-color:#8F3D0E"/>
	</linearGradient>
	<circle style="fill:url(#SVGID_00000112611598535033945240000012098584337814198946_);" cx="152.5" cy="219.9" r="32.1"/>
	
		<linearGradient id="SVGID_00000124867454954695237280000010415809850949177485_" gradientUnits="userSpaceOnUse" x1="151.5388" y1="83.5999" x2="152.9088" y2="52.3399" gradientTransform="matrix(1 0 0 -1 0 302.12)">
		<stop  offset="0" style="stop-color:#F8952D"/>
		<stop  offset="0.4" style="stop-color:#F97F27"/>
		<stop  offset="1" style="stop-color:#FA581D"/>
	</linearGradient>
	
		<ellipse style="fill:url(#SVGID_00000124867454954695237280000010415809850949177485_);" cx="152.2" cy="233.1" rx="20.8" ry="15.9"/>
	
		<radialGradient id="SVGID_00000043415655654625789410000007085056901433095335_" cx="170.15" cy="66.67" r="5.42" gradientTransform="matrix(1 0 0 -1 0 302.12)" gradientUnits="userSpaceOnUse">
		<stop  offset="0" style="stop-color:#FFFFFF"/>
		<stop  offset="0.11" style="stop-color:#FFFFFF;stop-opacity:0.92"/>
		<stop  offset="0.35" style="stop-color:#FFFFFF;stop-opacity:0.7"/>
		<stop  offset="0.68" style="stop-color:#FFFFFF;stop-opacity:0.35"/>
		<stop  offset="1" style="stop-color:#FFFFFF;stop-opacity:0"/>
	</radialGradient>
	<circle style="fill:url(#SVGID_00000043415655654625789410000007085056901433095335_);" cx="170.1" cy="235.4" r="5.4"/>
	
		<radialGradient id="SVGID_00000018917852924842982870000014830028390976449671_" cx="136.51" cy="105.7" r="9.23" gradientTransform="matrix(1 0 0 -1 0 302.12)" gradientUnits="userSpaceOnUse">
		<stop  offset="0" style="stop-color:#FFFFFF"/>
		<stop  offset="0.11" style="stop-color:#FFFFFF;stop-opacity:0.92"/>
		<stop  offset="0.35" style="stop-color:#FFFFFF;stop-opacity:0.7"/>
		<stop  offset="0.68" style="stop-color:#FFFFFF;stop-opacity:0.35"/>
		<stop  offset="1" style="stop-color:#FFFFFF;stop-opacity:0"/>
	</radialGradient>
	<circle style="fill:url(#SVGID_00000018917852924842982870000014830028390976449671_);" cx="136.5" cy="196.4" r="9.2"/>
</g>
<g id="Слой_7">
	<path d="M118.6,117.9l5.4,12.4l2.7,6.2c0.9,2.1,1.8,4.1,2.9,6.1c0.5,1,1.1,1.9,1.8,2.8c0.3,0.4,0.7,0.7,1.2,1
		c0.5,0.3,0.9,0.6,1.4,0.9c1.9,1.1,3.9,2.1,6,2.9c4.1,1.8,8.5,2.8,12.9,3.1c2.2,0,4.4-0.4,6.4-1.1c2.1-0.8,4.1-1.7,6-2.9
		c1.9-1.1,3.8-2.4,5.6-3.8c1.8-1.3,3.4-2.8,5-4.4c0.4-0.4,0.6-0.8,0.8-1.3c0.2-0.5,0.4-1,0.6-1.6c0.4-1,0.8-2.1,1.1-3.2
		c0.7-2.1,1.4-4.3,2-6.4s1.4-4.3,2.1-6.4s1.5-4.3,2.3-6.4c-1.3,4.3-2.8,8.6-3.9,12.9c-0.6,2.2-1.2,4.4-1.9,6.5
		c-0.4,1.1-0.7,2.1-1.1,3.2c-0.2,0.5-0.4,1.1-0.6,1.6c-0.1,0.3-0.2,0.5-0.4,0.8c-0.2,0.3-0.3,0.5-0.6,0.7c-1.6,1.7-3.3,3.2-5.1,4.6
		c-1.8,1.4-3.7,2.7-5.6,3.9c-1.9,1.2-4,2.2-6.1,3c-2.2,0.8-4.5,1.3-6.8,1.2c-4.5-0.3-9-1.4-13.1-3.2c-2.1-0.9-4.2-1.9-6.1-3
		c-0.5-0.3-1-0.6-1.5-0.9c-0.5-0.3-1-0.7-1.3-1.2c-0.7-0.9-1.3-1.9-1.8-2.9c-1.1-2-1.9-4.1-2.8-6.2l-2.5-6.3
		C121.9,126.3,120.2,122.1,118.6,117.9z"/>
	<path class="st0" d="M168.3,127.5l4.7-1.2c0.6-0.8,6.7-12.4-0.3-16.9s-12.1,3.5-12.1,3.5s-3.2,5.4-2.5,10.8s3,5,3,5L168.3,127.5z"
		/>
	<path class="st0" d="M136.4,128.7h-4.2c0,0-1-0.3-2.9-6.2c-1.1-3.6-0.5-7.5,1.5-10.6l1.6-1.5c7.4-4.7,11,2.3,11,2.3s3.7,5.8,4,9.4
		c0.4,2.5-0.7,5-2.8,6.4L136.4,128.7z"/>
	<path d="M153.3,129.9c-0.8,1.3-1.1,2.9-1,4.4l0.1,1l-0.8-0.6c-0.5-0.4-1-0.9-1.4-1.4c-0.2-0.3-0.4-0.6-0.4-1
		c-0.1-0.4-0.1-0.8,0.1-1.1c0.3-0.7,0.9-1.2,1.7-1.3C152,129.8,152.7,129.8,153.3,129.9z M153.3,129.9c-0.6,0.1-1.2,0.3-1.7,0.5
		c-0.5,0.2-0.8,0.5-1,1c-0.2,0.9,0.7,1.9,1.5,2.5l-0.8,0.4c0-0.9,0.2-1.7,0.5-2.5C152.1,131.1,152.6,130.4,153.3,129.9z"/>
	<path class="st8" d="M191,264.9c0.9,1.2,2.1,2.2,2.9,3.5c2.2,3.1,2.6,7.2,4.4,10.6c1.5,2.8,3.9,4.9,6.8,6.1
		c1.2,0.6,2.6,0.7,3.9,0.2c1.5-0.8,2-2.8,2.1-4.5c0.6-7.7-2.3-15.3-5.7-22.2c0-0.1-0.1-0.3-0.2-0.3c-0.3-0.2-0.6,0-0.9,0.3
		c-2.5,1.9-5.7,2.7-8.7,2.1c-1.2-0.3-2.5-0.7-3.7-0.3c-0.6,0.2-1.1,0.4-1.7,0.5c-0.6,0.1-0.7,0.2-0.6,0.8
		C189.7,262.8,190.2,264,191,264.9z"/>
	<path class="st9" d="M205.2,131.4c0,0-2.5-3.4-11.6,0.9c-9.1,4.3-15.3,12.5-17.1,20.1c0,0-1.3,7.3,0,11.3l5.7-3.4l-4.6,0.9
		c-0.6-0.8-1-1.8-1.2-2.8c-0.4-1.9,0.6-7.1,1.7-8.7s3.6-5.8,5.7-8.4s10.1-7.3,13-6.4s6.1,9,4.4,12.4c0,0-5.6-5.5-11-4.6
		c2.5,1.6,4.3,3.9,5.2,6.8c0.9,3.3,1.1,6.8,0.5,10.2c0,0-3.2-1.2-5.2-0.8c0.1,0.1,0.2,0.2,0.3,0.3c0.6,1.2,0.8,2.6,0.6,4
		c-0.4,1.6-1,3-1.8,4.4c1.3,0.3,2.6,0.9,3.7,1.7c1.1,0.8,1.9,1.8,2.4,3.1c1.1-0.2,2.3-0.2,3.5,0c0.8,0.2,1.6,0.5,2.2,1
		c0.8,0.7,1.4,1.7,1.6,2.7c0.2,1.1,0.3,2.1,0.2,3.2c0.7-0.7,1.2-1.6,1.4-2.6c0.2-1,0.3-2.1,0.3-3.1c0.2-2.1,0-4.2-0.4-6.3
		c2-4.9,2.3-10.4,0.8-15.5c-0.7-1.6-0.8-3.4-0.1-5C206.7,142,206.1,136.4,205.2,131.4z"/>
	<path class="st9" d="M155.8,165.6c4.3-0.4,10.8-6,10.8-6c8-6.9,9-17.7,9-17.7c-4.5,4.9-10.3,8.6-16.8,10.5
		c-1.4,0.4-2.8,0.9-4.2,1.5c-1,0.6-2,1.4-3.1,1.3s-1.9-0.9-2.8-1.5c-1.4-0.7-3-1.1-4.6-1.1c2.4,1.8,5.1,3.7,8.2,3.8
		c3.5,0.1,6.6-2.2,9.6-4.1c3.4-2.1,7.1-3.8,10.9-5c0.2,1.1-0.7,2.1-1.2,3.1c-3,5.9-4.3,6.8-8.6,9.9c-2.6,1.9-5,3.4-8.1,4
		C155.4,164.5,155.9,164.9,155.8,165.6z"/>
	<path class="st9" d="M148.1,164.2c-4.3-2.2-8-5.2-11-9c-4.2-5.8-3.7-7.7-3.7-7.7l2.1,1.1c0.9,3.1,2.6,5.9,4.9,8.1
		c2.7,2.4,5.5,4.6,8.5,6.5L148.1,164.2"/>
	<path d="M148.6,178.4c2.1-1.1,3.9-2.6,5.3-4.5c1.4-1.8,2.1-4.1,1.8-6.4c-0.1-1.1-0.6-2.1-1.3-3c-0.7-0.9-1.6-1.5-2.7-1.7
		c-0.5-0.1-1-0.1-1.5,0.1c-0.5,0.2-1,0.5-1.4,0.8c-0.8,0.8-1.6,1.7-2.2,2.6c-0.7,1-1.5,1.9-2.4,2.8c-0.6,0.4-1.1,0.5-1.5,0.9
		c-0.2,0.1-0.3,0.4-0.4,0.6c-0.1,0.3-0.2,0.6-0.4,0.9c-0.2,0.3-0.5,0.4-0.7,0.6l-0.6,0.6c-0.4,0.4-0.9,0.8-1.4,1.2
		c-1,0.7-2.3,1-3.5,0.8c-2.4-0.4-4.6-1.4-6.4-3.1c-0.9-0.8-1.7-1.7-2.3-2.7c-0.6-1.1-1.1-2.1-1.6-3.2v-0.1v-0.1
		c0-1.2-0.3-2.5-0.7-3.6c-0.3-1.1-1-2.1-2-2.9c-0.5-0.3-1.1-0.6-1.6-1c-0.5-0.3-1.1-0.6-1.6-0.9c-0.5-0.3-1.1-0.4-1.6-0.4
		c-0.6,0-1.1,0.2-1.7,0.4c-0.6,0.3-1.1,0.6-1.6,0.9c-0.5,0.3-1,0.7-1.3,1.1c-0.7,0.9-1.1,2.1-1.1,3.2c0.1,2.4,1.2,4.7,2.9,6.4
		l0.1,0.1v0.1c0.8,1.4,1.3,2.8,1.7,4.3c0.2,0.8,0.3,1.6,0.3,2.4c0,0.8-0.2,1.6-0.6,2.4c-0.4,0.7-1.1,1.3-1.9,1.6
		c-0.8,0.3-1.6,0.4-2.4,0.2c-1.5-0.3-3-0.9-4.2-1.8l0,0l0,0c-0.9-0.1-1.7-0.3-2.6-0.6c-0.8-0.2-1.7-0.6-2.4-1v-0.1
		c0.9,0.1,1.7,0.2,2.6,0.5c0.8,0.2,1.7,0.5,2.5,0.9h0.1l0,0c1.2,0.8,2.6,1.3,4.1,1.5c0.7,0.1,1.4,0,2-0.3c0.6-0.3,1.1-0.7,1.4-1.4
		c0.5-1.3,0.6-2.8,0.1-4.1c-0.4-1.4-0.9-2.8-1.7-4.1l0.1,0.1c-1-0.9-1.8-2-2.4-3.2c-0.6-1.2-0.9-2.5-1-3.9c-0.1-1.4,0.4-2.8,1.3-3.9
		c0.5-0.5,1-1,1.6-1.3c0.6-0.4,1.1-0.7,1.8-1c0.6-0.3,1.3-0.4,2-0.4c0.7,0,1.4,0.2,2,0.5c0.6,0.3,1.2,0.6,1.7,1c0.6,0.4,1,0.6,1.7,1
		c1.1,0.8,1.9,2,2.2,3.3c0.4,1.3,0.6,2.6,0.6,3.9v-0.1c0.5,1.1,1,2.2,1.5,3.2c0.6,1,1.3,1.9,2.2,2.7c0.9,0.8,1.8,1.5,2.9,2
		c1,0.5,2.2,0.9,3.3,1c1.1,0.1,2.3-0.2,3.2-0.8c0.5-0.3,0.9-0.7,1.3-1.1l0.6-0.6c0.2-0.2,0.4-0.4,0.6-0.6c0.1-0.2,0.2-0.5,0.3-0.7
		c0.1-0.3,0.3-0.7,0.5-0.9c0.5-0.5,1.1-0.6,1.5-1c0.8-0.8,1.5-1.7,2.1-2.7c0.7-1,1.4-2,2.3-2.8c0.5-0.4,1-0.8,1.6-1
		c0.6-0.2,1.3-0.3,2-0.1c1.3,0.3,2.4,1,3.2,2c0.8,1,1.3,2.2,1.4,3.4c0.2,2.5-0.6,4.9-2.2,6.8c-1.5,1.9-3.5,3.3-5.7,4.3L148.6,178.4z
		"/>
	<path d="M116.4,162.5c0.6-0.5,1.3-1,2-1.3c0.8-0.4,1.7-0.4,2.5,0c0.4,0.3,0.7,0.7,0.8,1.1c0.1,0.4,0.1,0.8,0,1.2
		c-0.2,0.8-0.5,1.5-1,2.2c-0.5,0.7-1.2,1.2-2,1.4c-0.9,0.3-1.8,0.2-2.6-0.2c-0.4-0.2-0.8-0.6-0.9-1.1c-0.1-0.4-0.1-0.9,0-1.3
		C115.4,163.8,115.8,163.1,116.4,162.5z M116.5,162.6c-0.5,0.5-0.8,1.3-0.7,2c0,0.6,0.3,1.1,0.8,1.4c0.6,0.2,1.2,0.3,1.9,0.2
		c0.7-0.1,1.3-0.4,1.8-0.8c0.6-0.5,0.9-1.1,1-1.8c0.1-0.7-0.2-1.3-0.8-1.6c-0.7-0.2-1.3-0.2-2-0.1
		C117.7,161.9,117,162.2,116.5,162.6z"/>
	<path d="M101.6,187.8c0.1,0.3,0.4,0.6,0.7,0.7c0.3,0.1,0.6,0.1,0.8,0c0.5-0.4,0.8-0.9,1.1-1.4c0.4-0.5,0.7-1.2,0.8-1.8
		c0.1-0.7-0.1-1.3-0.5-1.9c-0.4-0.4-0.9-0.6-1.5-0.5c-0.2,0.1-0.5,0.2-0.6,0.4c-0.2,0.2-0.3,0.5-0.4,0.7c-0.2,0.6-0.4,1.2-0.6,1.8
		C101.2,186.5,101.3,187.2,101.6,187.8z M101.5,187.9c-0.3-0.6-0.6-1.3-0.8-2c-0.2-0.8-0.1-1.5,0.2-2.3c0.2-0.4,0.4-0.7,0.7-1
		c0.3-0.3,0.8-0.5,1.2-0.6c0.9-0.1,1.7,0.4,2.1,1.2c0.3,0.7,0.4,1.4,0.4,2.2c0,0.7-0.1,1.5-0.3,2.2c-0.3,0.8-0.9,1.4-1.7,1.6
		c-0.4,0.1-0.9,0-1.2-0.3C101.8,188.5,101.6,188.2,101.5,187.9z"/>
	<path d="M102.7,201c0.1,0.7,0,1.3-0.1,2c0,0.7,0,1.3,0,2c0.1,1.3,0.4,2.5,1.1,3.6c0.3,0.5,0.8,1,1.2,1.4c0.5,0.4,1,0.9,1.6,1.2
		c1,0.8,2.2,1.4,3.4,1.8l0.4,0.1v0.3c0,0.6,0.1,1.2,0.2,1.8c0.1,0.5,0.3,1.1,0.5,1.5c0.5,0.4,0.9,1,1.1,1.6c0.1,0.7,0.2,1.3,0.1,2
		c0,1.2,0.4,2.3,1,3.3c0.6,1.1,1.6,1.8,2.8,2.1c-1.2-0.1-2.4-0.8-3.1-1.9c-0.8-1-1.3-2.3-1.4-3.6c0-0.6,0-1.2-0.2-1.7
		c-0.1-0.3-0.2-0.5-0.4-0.7c-0.1-0.1-0.2-0.2-0.3-0.3c-0.1-0.1-0.3-0.2-0.4-0.4c-0.4-0.6-0.7-1.2-0.8-1.9c-0.1-0.6-0.2-1.3-0.2-1.9
		l0.4,0.5c-1.4-0.5-2.6-1.1-3.8-2c-0.6-0.4-1.1-0.9-1.6-1.3c-0.6-0.5-1-1-1.4-1.6c-0.7-1.3-1-2.7-1-4.1c0-0.7,0-1.4,0.1-2.1
		C102.1,202.2,102.3,201.6,102.7,201z"/>
	<path d="M107.1,207.8c0,0.7,0.2,1.3,0.6,1.8c0.3,0.5,0.6,1,1,1.4c0.2,0.2,0.4,0.2,0.6,0.1c0.3-0.1,0.5-0.3,0.7-0.6
		c0.3-0.5,0.5-1.2,0.4-1.8c0-0.6-0.2-1.2-0.4-1.8c-0.2-0.5-0.5-0.9-1-1.1c-0.2-0.1-0.4-0.1-0.7-0.1c-0.2,0-0.4,0.1-0.6,0.3
		C107.3,206.5,107.1,207.1,107.1,207.8z M107,207.8c0-0.7,0.1-1.4,0.3-2.1c0.2-0.4,0.5-0.7,0.9-0.9c0.4-0.1,0.9-0.1,1.3,0
		c0.8,0.3,1.3,1,1.5,1.8c0.2,0.7,0.2,1.4,0,2.1c-0.2,0.7-0.4,1.3-0.7,1.9c-0.2,0.3-0.4,0.6-0.7,0.9c-0.4,0.3-0.9,0.3-1.3,0.1
		c-0.3-0.2-0.6-0.5-0.8-0.9c-0.2-0.3-0.3-0.7-0.3-1C107,209.1,107,208.4,107,207.8L107,207.8z"/>
	<path class="st10" d="M151.8,178.8c-20.4,0-36.9,16.5-36.9,36.9s16.5,36.9,36.9,36.9s36.9-16.5,36.9-36.9c0,0,0,0,0,0
		C188.7,195.3,172.2,178.8,151.8,178.8C151.8,178.8,151.8,178.8,151.8,178.8z M151.8,251.4c-19.6,0-34.2-16-35-35s16.7-35,35-35
		c19.6,0,34.1,16,35,35S170.1,251.4,151.8,251.4L151.8,251.4z"/>
	<path class="st11" d="M205.4,259.7c0.6,1.8,1.1,3.6,1.5,5.4c-0.1,0.8-0.9,2.8-3.5,4.1s-5.6,1.1-7,0s-1.9-3.9-2.9-4.9
		c-0.8-0.9-1.5-1.8-2.1-2.8l-0.3-0.7l0.2-0.2"/>
	<path d="M156.2,168c1.2-1,2.8-1.4,4.3-1.1c0.8,0.2,1.5,0.5,2.1,1c0.3,0.2,0.6,0.5,0.8,0.8c0.2,0.3,0.4,0.6,0.7,0.9l0,0l0,0
		c0.3,0.8,0.6,1.6,1,2.3s0.7,1.5,0.9,2.4l-0.1-0.1c0.9,0.7,2.1,0.7,3.1,0.2c1.1-0.6,2.1-1.2,3.1-1.8c1-0.6,2-1.3,3.1-2s2-1.3,3-2.1
		l0.1,0.1c-0.8,1-1.6,1.9-2.6,2.7c-1,0.8-2,1.6-3,2.2c-1,0.7-2.2,1.3-3.3,1.8c-0.6,0.3-1.3,0.4-2,0.2c-0.7-0.1-1.3-0.5-1.8-1h-0.1
		v-0.1c-0.1-0.8-0.4-1.6-0.7-2.3c-0.3-0.8-0.7-1.5-1.2-2.2l0,0c-0.2-0.2-0.5-0.5-0.7-0.7s-0.5-0.4-0.8-0.6c-0.5-0.4-1.1-0.7-1.8-0.9
		c-0.6-0.2-1.3-0.3-2-0.2C157.6,167.5,156.9,167.7,156.2,168L156.2,168z"/>
	<path d="M178,168.6c0.4-1.1,0.8-2.1,1.3-3.1c0.2-0.5,0.5-1,0.7-1.5c0.2-0.5,0.6-1,0.9-1.5v0.1c0.4-1,0.8-1.9,1.4-2.7
		c0.5-0.9,1.3-1.7,2.1-2.3c0.5-0.3,1-0.5,1.5-0.6c0.3-0.1,0.6-0.1,0.8-0.1c0.3,0,0.5,0,0.8,0.1c1.1,0.2,2.1,0.5,2.9,1.1
		c0.9,0.6,1.6,1.6,1.8,2.7c0.2,1,0.2,2.1-0.1,3.1c-0.2,1-0.5,2-1,2.9c-0.2,0.5-0.6,0.9-0.9,1.3c-0.4,0.4-0.9,0.7-1.5,0.9l0.3-0.2
		l-2,3.5l-0.1-0.4l2.9,2.5h-0.2c2.3-1.1,4.8-1.8,7.3-2.1c1.3-0.2,2.6,0,3.8,0.4c1.2,0.5,2.2,1.5,2.7,2.7c1,2.5,0.5,5.4-1.4,7.4
		c-0.9,0.9-2,1.7-3.2,2.2c-0.6,0.3-1.2,0.5-1.9,0.7c-0.7,0.2-1.4,0.2-2.1,0.1l0.4-0.8c0.7,0.6,1.5,1.1,2.3,1.6
		c0.4,0.2,0.8,0.5,1.2,0.6c0.4,0.2,0.9,0.3,1.4,0.6c1,0.4,1.9,1.2,2.3,2.3c0.3,1,0.4,2.1,0.2,3.1c-0.1,1-0.4,2.1-0.9,3
		c-0.5,1-1.2,1.8-2.1,2.4c-1.8,0.9-3.9,1.3-5.9,1.1l0.3-0.8c0.6,0.6,1.1,1.2,1.6,1.9c0.5,0.7,0.8,1.5,1,2.4c0.1,0.4,0.1,0.9,0,1.4
		c-0.1,0.4-0.2,0.8-0.3,1.2c-0.2,0.8-0.4,1.6-0.7,2.3v-0.2c0.1,1,0.1,2.1-0.1,3.1c-0.1,1-0.5,2-1.1,2.9c-0.3,0.4-0.7,0.8-1.2,1
		c-0.5,0.2-0.9,0.4-1.4,0.5c-1,0.2-2,0.2-3-0.1v-0.1c1,0.2,2,0.2,2.9-0.1c0.5-0.1,0.9-0.3,1.3-0.6c0.4-0.2,0.7-0.6,1-0.9
		c0.5-0.8,0.8-1.7,0.9-2.7c0.1-1,0.1-1.9,0-2.9V208v-0.1c0.2-0.7,0.4-1.5,0.6-2.3c0.1-0.4,0.2-0.8,0.3-1.1c0.1-0.3,0.1-0.7,0-1
		c-0.2-0.7-0.5-1.4-0.9-2c-0.4-0.6-0.9-1.2-1.5-1.8l-0.9-0.8h1.2c1.9,0.2,3.7-0.2,5.4-1c1.5-1.1,2.4-2.7,2.5-4.6
		c0.2-0.9,0.1-1.8-0.1-2.6c-0.3-0.8-1-1.4-1.8-1.8c-0.4-0.2-0.8-0.3-1.3-0.6c-0.5-0.2-0.9-0.4-1.4-0.7c-0.9-0.5-1.7-1.1-2.4-1.8
		l-1.4-1.2l1.9,0.4c1.2,0.1,2.3-0.1,3.4-0.7c1.1-0.5,2.2-1.2,3.1-2c1.8-1.7,2.4-4.4,1.5-6.7c-0.4-1.2-1.3-2.1-2.4-2.6
		c-1.2-0.4-2.4-0.6-3.7-0.4c-2.5,0.3-4.9,1.1-7.2,2.2l-0.1,0.1l-0.1-0.1l-3-2.4l-0.2-0.1l0.1-0.2l1.9-3.6l0.1-0.1l0.2-0.1
		c0.4-0.1,0.7-0.4,1-0.7c0.3-0.3,0.6-0.7,0.8-1.1c0.4-0.9,0.7-1.8,0.9-2.7c0.2-0.9,0.2-1.9,0.1-2.8c-0.2-0.9-0.7-1.7-1.4-2.2
		c-0.8-0.5-1.7-0.9-2.6-1c-0.9-0.2-1.8-0.1-2.6,0.4c-1.5,1.2-2.7,2.8-3.4,4.6l0,0l0,0c-0.3,0.4-0.6,0.9-0.9,1.4
		c-0.3,0.5-0.6,1-0.8,1.5c-0.5,1-1,2-1.5,3L178,168.6z"/>
	<path d="M193.1,193.3c-0.5,0.9-0.7,1.9-0.4,2.9c0.1,0.5,0.4,0.9,0.9,1.1c0.5,0.2,1,0.2,1.5-0.1c0.8-0.5,1.1-1.5,0.8-2.4
		c-0.3-0.9-1.2-1.6-2.2-1.6V193c1.2-0.5,2.7,0.1,3.2,1.3c0,0,0,0.1,0,0.1c0.5,1.3-0.2,2.8-1.5,3.2c0,0-0.1,0-0.1,0
		c-0.6,0.1-1.2,0.1-1.8-0.1c-0.6-0.1-1.2-0.5-1.5-1.1c-0.3-0.6-0.4-1.3-0.1-1.9C192.1,194,192.5,193.5,193.1,193.3L193.1,193.3z"/>
	<path d="M184.4,165c0.5,0.4,1.2,0.7,1.9,0.8c0.5,0.2,1.1,0.2,1.6,0.1c0.6-0.2,1-0.8,1-1.4c0-0.7-0.3-1.3-0.8-1.7
		c-1-0.7-2.2-1-3.4-0.6c-0.2,0.1-0.4,0.2-0.6,0.4c-0.1,0.1-0.2,0.2-0.2,0.3c0,0.1-0.1,0.3-0.2,0.4C183.6,164,183.9,164.6,184.4,165z
		 M184.3,165.1c-0.7-0.4-1.1-1-1.3-1.8c-0.1-0.9,0.4-1.7,1.2-2.1c0.8-0.3,1.6-0.3,2.3,0c0.7,0.2,1.4,0.7,1.9,1.3
		c0.4,0.6,0.6,1.3,0.7,2.1c0.1,0.8-0.3,1.6-0.9,2.1c-0.4,0.2-0.8,0.3-1.3,0.2c-0.4-0.1-0.7-0.2-1-0.5
		C185.4,166,184.9,165.5,184.3,165.1L184.3,165.1z"/>
	<path class="st12" d="M114.8,128.7c0.3,0.2,0.7,0.4,1,0.1s0.1-0.5,0-0.8c-0.4-0.8-0.9-1.6-1.5-2.3l-1.6-2.1c-0.3-0.4-1-1.3-1.6-0.7
		s0.1,1.4,0.4,1.9C112.3,126.3,113.5,127.6,114.8,128.7z"/>
	<path class="st12" d="M135.9,132c0.2,0,0.4,0.1,0.5,0.2c0.1,0.2,0.1,0.5,0,0.7c-0.4,1.1-1.3,1.8-2.4,2.1c-0.9,0.2-1.8,0-2.6-0.4
		c-0.6-0.3-1.5-0.9-0.8-1.6c0.8-0.5,1.6-0.8,2.6-0.9C134,131.9,135,131.9,135.9,132z"/>
	<path class="st9" d="M107.2,108.6c0.6-0.3,1.3-0.4,2-0.2c0.7,0.2,1.3,0.5,1.9,0.8c0.7,0.5,1.4,1.1,2,1.7c0.3,0.3,0.6,0.7,1.1,0.7
		c0.1-0.9-0.2-1.8-0.8-2.6c-0.6-0.7-1.4-1.2-2.2-1.6c-0.8-0.5-1.8-0.7-2.8-0.5c-0.7,0.2-1.4,0.6-1.8,1.2c-0.4,0.6-0.5,1.2-0.4,1.9
		c0.2-0.1,0.2-0.6,0.4-0.8C106.6,109,106.9,108.8,107.2,108.6z"/>
	<path class="st9" d="M107.9,115.7c0.2,1.6,0.7,3.2,1.2,4.8l-0.2-4.2c-0.1-0.5,0-1,0.1-1.5c0.3-0.7,0.8-1.2,1.5-1.4
		c0.7-0.2,1.4-0.3,2.1-0.3c-0.6-0.9-1.4-1.6-2.5-2c-0.5-0.2-1-0.2-1.5-0.1c-0.4,0.2-0.4,0.6-0.5,1
		C107.8,113.2,107.7,114.5,107.9,115.7z"/>
	<path class="st9" d="M113.5,118.1l2.7,0.3l-0.9-1.7c-0.2-0.3-0.5-1.4-0.9-1.6C113.7,114.8,113.4,118.1,113.5,118.1z"/>
	<path class="st9" d="M191.6,104.4c-4.7,5.8-4.3,9.4-4.3,9.4s3.8-6.7,6.4-6.9s1.8,3.5,1.8,3.5c-1.2-1-1.9,3.9-1.9,3.9
		s-0.1-0.2-0.1-0.4c-1.4-4.3-5.3-1.6-5.3-1.6s-0.2,2.2,0.6,2.9s3.6,0.5,2.3,1.4s-4.7-1.1-4.7-1.1l-0.3,0.7l-0.6,3.2l1.1,0.9l0.9,1.4
		c-0.1,0.8-0.2,1.6-0.2,2.4c0.1,0.9-1.1,0.9-1.2,0c-0.1-0.8-0.7-1.6-1.4-2c-0.5-0.1-1.2,2.3-0.9,3.4s3.5-0.6,3.5-0.6
		c-0.7,0.8-1.3,1.6-1.9,2.5c-0.7,0.9-1.7,1.4-2.8,1.4c-0.6,0.8-1.2,1.6-1.8,2.4c-0.9,1.4,0.7,2.5,0.7,2.5l-2.5,0.5l-2.4,6.4
		l-3.4,3.3c1.4-2.3,2.7-4.6,3.9-7c0.7-2.2,1.1-4.6,1.3-6.9l3.9-12.3l0.3-5.7c-2,1.1-4.2,1.7-6.4,1.7c2-2.2,3.4-4.8,4.3-7.7
		c0.7-2.9,0.1-6.2-2-8.2s-6.1-2.1-7.9,0.2c-1,1.3-1.5,3.2-3.1,3.5c-2,0.4-3.7-2.2-5.6-1.7c-1.4,0.4-1.8,2.1-2,3.6l-1.3,10.8
		c-7.5-8.7-17.5-14.6-27.4-20.5l4.4,14.9c-1.4,0.2-2.7,0.6-3.9,1.3c-2-5.8-5.7-11-10.6-14.8c-0.8,7.5,1.2,14.9,5.6,21l-4.6-1
		l0.4,2.9l-1.1-0.4c0.3,4.4,3.1,9.3,4.4,12.1c1.1,5.9,3.2,11.5,6,16.8l-1.6-1.7l-2.7-5.6l-1.8-3.6H124c-0.2,0-0.3,0-0.5-0.1
		c-0.1-0.1-0.2-0.3-0.2-0.6c-0.1-0.6-0.1-1.3-0.1-1.9c-1.3-1.4-3.4-1.7-4.8-3c-0.6-0.6-1.1-1.4-1.4-2.2c-0.5-1.1-0.8-2.3-0.9-3.5
		c0-1.2,0.5-2.4,1.3-3.3l0.6,4.7c0,0.4,0.1,0.7,0.3,1c0.4,0.4,1.1,0.4,1.5-0.1c0.4-0.4,0.5-1,0.4-1.6c-0.1-0.6-0.3-1.1-0.6-1.6
		c-1.1-2.4-1.7-4.9-1.9-7.5c-0.5-7.5-3.6-15.3-0.3-22.1c2.5-5.3,7.7-8.8,13.2-10.7s11.4-2.1,17.3-2.3c11-0.4,22.3-0.6,33,2.3
		c3.3,0.7,6.4,2.2,9,4.3c2.5,2.2,4.2,5.6,3.6,8.9c1.3,0,2.3,1.1,2.3,2.4c0,0,0,0.1,0,0.1C194.6,100.3,192.9,102.8,191.6,104.4z"/>
	<path class="st9" d="M144.4,130c-0.1,0.5-0.5,0.8-1,0.9c-0.5,0.1-0.9,0.1-1.4,0c-1.4-0.2-2.8-0.2-4.2-0.2l-2.1,0.1
		c-0.6,0.1-1.2,0.1-1.8,0.1c0.5-0.4,1.1-0.6,1.8-0.6c0.9-0.2,1.9-0.4,2.9-0.5C139.1,129.6,144.4,129.6,144.4,130z"/>
	<path class="st9" d="M149.9,129.5c0.7-1,2-1.6,3.2-1.3c0.5,0.1,1,0.4,1.4,0.8c0.3,0.4,0.4,1,0.1,1.5c-0.4,0.6-1.3,0.7-2,1.1
		c-0.5,0.3-0.9,0.9-0.9,1.5c0,0.2,0,0.5-0.2,0.6s-0.6,0-0.8-0.2C149.9,132.3,149,131,149.9,129.5z"/>
	<path class="st12" d="M153.1,133.7c0,0.1,0,0.3,0,0.4c0,0.1,0.2,0.2,0.3,0.2c0.1,0,0.2-0.1,0.3-0.2l0.5-0.4c0.4-0.3,0.8-1.2,0-1.2
		C153.6,132.5,153.2,133.2,153.1,133.7z"/>
	<path class="st12" d="M171.3,133.5c0.3,0.2,0.7,0.4,1.1,0.4c0.4,0,0.8-0.2,1.1-0.6c0.3-0.3,0.5-0.7,0.6-1.1
		c0.3-0.6,0.5-1.2,0.2-1.7c-0.3-0.3-0.6-0.5-1-0.5c-1.6-0.3-3.2-0.1-4.6,0.6c-0.2,0.1-0.7,0.3-0.7,0.6s0.6,0.5,0.8,0.7L171.3,133.5z
		"/>
	<path class="st9" d="M170.2,128.8c-3.5-0.9-7.1,1.5-10.6,0.7c0.3,0.1,0.6,0.8,0.9,1c0.2,0.2,0.5,0.2,0.7,0.2
		c0.9-0.1,1.9-0.3,2.8-0.6L170.2,128.8z"/>
	<path class="st12" d="M189.8,122.9c0.2-0.2,0.4-0.3,0.6-0.3c0.2-0.1,0.5,0,0.7,0.2c0.2,0.2,0.2,0.5,0.1,0.8
		c-0.5,1.6-1.5,2.9-2.9,3.7c-0.4,0.3-1.1,0.6-1.4,0c-0.2-0.4,0.2-1,0.4-1.3C187.9,124.8,188.8,123.8,189.8,122.9z"/>
	<path class="st13" d="M103.3,132.6c4.3-0.3,8.6,0.5,12.6,2.4c3.9,1.9,7.1,5,9.2,8.8c0.4-3.3-1-6.6-3.8-8.6
		c-1.6-1.1-3.5-1.6-5.1-2.6s-3-2.4-4.5-3.6c-1.2-1-2.8-1.2-4.2-0.4c-0.9,0.4-1.7,1.1-2.2,1.9C104.7,131.3,104,132,103.3,132.6z"/>
	<path class="st13" d="M102.6,141.1c0.8-2.8,2.2-5.3,4.2-7.3c-1.5,0-3,0.2-4.4,0.6c-1.4,0.4-2.7,1.3-3.5,2.6
		c-0.6,1.1-0.8,2.2-0.8,3.4c0.1,2.2,0.6,4.4,1.4,6.4c0.2,0.4,0.8,2.3,1.3,1.2c0.4-1.1,0.6-2.2,0.8-3.3
		C101.9,143.5,102.2,142.3,102.6,141.1z"/>
	<path class="st13" d="M124.1,135.4c3.8,5.8,5.5,12.8,4.7,19.7c0.3,0.6,0.4,1,0.6,1.6c0,0,0,0.1,0.1,0.1c0,0,0.1,0,0.1,0
		c0.8-0.5,1.9-1.6,1.9-2.6c0-1.4,0.2-2.8,0.7-4.2c0.4-0.7,0.6-1.5,0.8-2.4c-2.9-3.7-5.4-7.8-7.2-12.1L124.1,135.4z"/>
	<path class="st13" d="M133.3,155.5c0.3,2,0,4-0.8,5.8c0-0.1-0.3-0.6-0.3-0.7c-0.1-0.2-0.3-0.5-0.5-0.7c-0.4-0.5,0-0.8,0.3-1.3
		C132.6,157.7,133,156.6,133.3,155.5z"/>
	<path class="st12" d="M135.2,148.5c0,0,13.5,4.9,18.6,4.3s17-7.1,17-7.1s-6.9,5.9-12.2,7.1c-3.7,0.7-7.5,0.9-11.3,0.4L135.2,148.5z
		"/>
	<path class="st13" d="M178.5,145.1c-0.7-1.3-0.1-2.9,0.5-4.3l1.9-4.4c0.3-0.8,0.7-1.5,1.2-2.2c0.7-0.7,1.5-1.3,2.4-1.7
		c3.6-2.1,6.5-5.1,8.6-8.7c0.3-0.6,0.7-1.1,1.2-1.5c0.6-0.3,0.9,0,1.4,0.4c2.3,2,4.4,4.2,6.1,6.7c-3.5-0.2-6.9,0.6-9.9,2.3
		c-2.4,1.4-4.7,3.1-6.7,4.9c-2.6,2.4-4.8,5.1-6.6,8.2"/>
	<path class="st13" d="M180.5,134.2l-1.5,0.2c-0.4,1.7-0.9,3.4-1.6,5c-0.1,0.3-0.3,0.6-0.4,0.9c-0.3,1-0.4,2.1-0.3,3.2
		c0-0.6,0.2-1.1,0.4-1.6c0.2-0.6,0.4-1.3,0.7-1.9c0.5-1.3,1-2.5,1.6-3.8C179.8,135.5,180.1,134.8,180.5,134.2z"/>
	<path class="st13" d="M205.1,137.4c0.3,0.9,0.7,1.8,1.2,2.6c0.4-1.1,0.6-2.2,0.5-3.4c-0.1-1.1-0.4-2.3-0.8-3.4
		c-0.3-0.9-0.8-1.8-1.5-2.4c-0.6-0.4-1.3-0.7-2-0.8c-0.4,0-0.8,0-1.2,0c-0.3,0-0.8-0.1-0.5,0.3c0.4,0.5,0.9,1,1.3,1.5
		c0.8,1.1,1.5,2.2,2.1,3.4C204.5,136.1,204.8,136.7,205.1,137.4z"/>
	<path class="st13" d="M176.9,146.1c-0.4,2.2-0.6,4.4-0.4,6.6c0.4,3.3,0,6.8,0,10.1c0,0.4,0,0.8-0.2,1.2c-0.2,0.3-0.4,0.6-0.6,0.8
		c-2.1,2.1-4.3,4.3-5.4,7.1c-0.2,0.7-0.5,1.4-0.8,2c-0.3,0.6-0.9,1.1-1.7,1.3c-0.7,0.1-1.4-0.3-1.7-1c0-0.7,0.3-1.4,0.9-1.9l6.1-6.4
		c0.7-0.7,1.4-1.5,1.9-2.4c0.5-0.9,0.6-2,0.4-3c-3.8,3.5-5.7,9-10,11.8l-0.5-1.7c2.4-2.5,4.7-5.3,6.7-8.2c2-2.9,3.3-6.3,3.8-9.8
		c0.1-1.2,0.1-2.5,0.4-3.7c0.1-1.2,0.6-2.4,1.4-3.4C176.9,145.8,176.9,145.8,176.9,146.1z"/>
	<path class="st13" d="M133.3,168.2c0.3,0.7,0.6,1.4,1,2c0.3,0.3,0.5,0.7,0.5,1.1c0,0.2,0,0.5,0.1,0.7c0.1,0.2,0.2,0.4,0.3,0.6
		l1,1.5c0.1,0.1,0.2,0.2,0.3,0.3c0.2,0.1,0.4,0.1,0.6,0c1.4-0.4,2.6-1,3.6-2c-1.3-0.6-2.6-1.3-3.7-2.2c-1.3-1.1-2.4-2.5-3.2-4
		c-0.2-0.4-0.5-0.9-0.7-1.3c-0.1,0.5-0.1,0.9,0,1.4C133,167.1,133.1,167.7,133.3,168.2z"/>
	<path class="st13" d="M142.8,169.6l-0.7,1c0,0.1-0.1,0.1-0.2,0.2c-0.2,0.1-0.4,0.1-0.6-0.1c-1.6-0.9-3.1-2.1-4.4-3.4
		c-0.4-0.3-0.7-0.7-1.1-1.1c0.5,0.1,0.9,0.3,1.4,0.6c0.4,0.2,0.9,0.5,1.4,0.7c0.9,0.5,1.8,1,2.7,1.5
		C141.4,168.9,142.7,169.6,142.8,169.6z"/>
	<path class="st13" d="M148.5,178.6c1.4-0.7,2.7-1.6,3.9-2.6c0.2-0.2,0.5-0.4,0.7-0.5c0.5-0.1,1-0.1,1.4,0.2c0.4,0.3,0.7,0.7,1,1.1
		c0.3,0.5,0.6,1,0.8,1.5c0,0.1,0.1,0.2,0.1,0.2c0,0.2-0.3,0.2-0.5,0.2c-1.4,0-2.9-0.3-4.3-0.4c-0.7-0.1-1.3-0.1-2,0.1
		c-0.4,0.2-0.8,0.3-1.2,0.3c0-0.1,0.2-0.2,0.3-0.2"/>
	<path class="st2" d="M154.6,176c-0.1-0.6-0.3-1.1-0.5-1.7c0,0.1-0.6,0.6-0.7,0.7s-0.6,0.4-0.6,0.6C152.8,176.1,154.4,176,154.6,176
		z"/>
	<path class="st9" d="M121.4,162.9c0,0.7-0.2,1.5-0.6,2.1c-0.4,0.6-0.9,1.2-1.5,1.6c0.8-0.1,1.6-0.4,2.2-0.8c0.5-0.3,1-0.8,1.3-1.4
		c0.2-0.6,0.3-1.3,0.1-2c-0.2-0.7-0.5-1.3-0.9-1.9c-0.4-0.9-1.1-1.7-1.9-2.3c-1-0.6-2.2-0.8-3.4-0.6c-0.8,0.1-1.5,0.3-2.1,0.7
		c-0.7,0.4-1.2,0.9-1.5,1.6c-0.3,0.9-0.4,1.9-0.2,2.9c0.1,1,0.5,2,1.1,2.9c0.6,0.8,1.6,1.3,2.7,1.3c-0.2-0.2-1-1-0.8-1.2
		c0.1-0.1,0.6-0.1,0.7-0.1c0.3,0,0.5-0.1,0.8-0.2c1-0.3,1.9-0.7,2.8-1.3c0.2-0.2,0.4-0.3,0.7-0.5C120.9,163.4,121.4,163,121.4,162.9
		z"/>
	<path class="st9" d="M107,133.6c0,0-3.6,4.8-4.5,8s-2,8.1-2,8.1l0.7,4.6l0.7,3.4c0,0,0.2,2.9,0.3,5.3s1.6,10.4,3.3,11.1
		c0,0,1-5.3,4.5-7.3c0,0-2.2-0.1-3,1c0,0-0.3-5.4,1.9-9.2s7-7.8,7-7.8c-2.3,0.3-4.4,1.1-6.2,2.5c-2.7,2.2-4.1-3.4-4.6-6.6
		s0.9-10,6-10s9.7,3.1,11.2,5.7s2.4,7.9,2.4,7.9l2.6,2.4c0,0,0.1-2.9-3.6-8.8c-3.5-5.6-9.4-9.3-16-10.1l-0.5-0.1"/>
	<path class="st9" d="M112.6,166.6c0.4,1.3,1.3,2.3,2.6,2.8c0.4,0.1,0.7,0.2,1,0.4c0.2,0.2,0.4,0.5,0.5,0.8c0.4,0.9,0.7,1.8,1,2.7
		c0.4,1.1,0.6,2.2,0.6,3.4c0,1.2-0.5,2.3-1.4,3c-0.8,0.5-1.8,0.8-2.7,0.8c-1.4,0.1-2.9,0-4.3-0.2c-0.4,0-0.8-0.2-1.2-0.4
		c-0.4-0.3-0.7-0.6-1.1-1c-0.7-0.5-1.5-0.9-2.4-1.2c-0.9-0.3-1.6-0.8-2.1-1.6c1,0.3,2,0.8,3.1,1c0.1-0.4,0.2-0.8,0.2-1.2
		c0.1-0.4,0.2-0.8,0.3-1.2c0.2-0.8,0.5-1.6,0.9-2.3c0.7-1.5,1.7-2.9,2.9-4.1C111.1,167.7,111.9,167.1,112.6,166.6z"/>
	<path class="st14" d="M115.2,172.9c0.2-0.2,0.5-0.2,0.8-0.1c0.2,0.1,0.4,0.4,0.4,0.6c0.1,0.3,0.1,0.6,0,0.9c-0.2,0.4-0.5,0.8-0.9,1
		c-1.1,0.9-2.1,2-2.9,3.2c-0.2,0.3-0.5,0.6-0.8,0.8c-0.4,0.1-1.7,0-1.7-0.6s0.5-1.2,0.8-1.6c0.7-1.1,1.6-2.1,2.6-2.9
		C114,173.7,114.6,173.3,115.2,172.9z"/>
	<path class="st15" d="M116.5,174.4c0.3,1,0.2,2-0.2,2.9c-0.4,0.9-1.1,1.6-2,2c-0.6,0.2-1.2,0.3-1.8,0.1c-0.2,0-0.7-0.1-0.8-0.4
		s0.3-0.5,0.4-0.7c0.8-1,1.7-1.9,2.7-2.7C115.4,175.3,116,174.8,116.5,174.4z"/>
	<path class="st12" d="M113.9,208.9c0-1.8-0.5-3.6-1.6-5.1c-0.5-0.8-1.3-1.5-2.1-2.1c-0.9-0.5-1.9-0.7-2.9-0.4c0.7-0.8,1-1.9,0.8-3
		c1.8,0.2,3.2,1.4,3.7,3.1c0.1,0.3,0.1,0.6,0.3,0.7s0.7-0.1,0.8-0.4c0.2-0.6,0-1.2-0.4-1.6c-0.4-0.4-0.9-0.7-1.3-1.1
		c-0.5-0.4-0.7-0.9-0.7-1.5c0.2-0.7,0.8-1.1,1.4-1.1c0.7,0,1.3,0.3,1.7,0.8c1.7,1.6,1.7,4.3,0.2,6c1.3,1.7,1.8,3.8,1.4,5.9
		c-0.3,1.6-1.3,3-2.7,3.8c-0.3,0.2-0.7,0.4-1.1,0.5c0.1-0.3,0.5-0.5,0.8-0.7c0.4-0.3,0.7-0.7,0.9-1.1
		C113.5,210.9,113.8,209.9,113.9,208.9z"/>
	<path class="st9" d="M102.6,188.2c-0.1,0.1-0.2,0.1-0.3,0.1c-0.1,0-0.2-0.1-0.2-0.2c-0.5-0.6-0.8-1.3-1-2c-0.2-0.7-0.1-1.5,0.2-2.2
		c0.3-0.7,0.9-1.2,1.7-1.4c0.4-0.1,0.8,0,1,0.4c0.1,0.4,0.2,0.9,0.2,1.4c0,0.9-0.2,1.8-0.7,2.6C103.2,187.4,102.9,187.8,102.6,188.2
		z"/>
	<path class="st9" d="M105,187.2c0.6-0.1,1.1-0.5,1.4-1.1c0.3-0.7,0.4-1.5,0.3-2.3c-0.2-0.8-0.5-1.5-0.9-2.2
		c-0.8-1.5-1.9-2.7-3.3-3.5c-0.6-0.3-1.2-0.5-1.8-0.5c-0.8,0.1-1.6,0.5-2.1,1.1c-0.8,0.8-1.3,2-1.3,3.1c0,1.4,0.5,2.9,1.3,4
		c0.9,1.1,1.9,2.1,2.9,3c0.4,0.4,0.8,0.7,1.3,0.8c0.5,0.1,1-0.1,1.4-0.3c1.1-0.7,1.9-1.8,2-3.1c0-0.1,0-0.1,0-0.2
		c-0.1-0.1-0.2-0.2-0.3-0.1c-0.1,0.1-0.2,0.1-0.3,0.2l-1.3,1.6c-0.3,0.4-0.6,0.7-1,0.9c-0.4,0.2-0.9,0.1-1.2-0.3
		c-0.2-0.3-0.2-0.7-0.1-1c0-1.1,0.3-2.1,0.6-3.2c0.1-0.4,0.3-0.7,0.6-1c0.3-0.3,0.7-0.4,1.1-0.3c0.7,0.1,0.8,0.9,0.9,1.6
		C105.1,185.3,105.1,186.3,105,187.2z"/>
	<path class="st12" d="M108.7,186c-0.4,2.3-1.8,4.4-3.7,5.8c1.4-0.3,2.7-0.9,3.7-1.9c1-1,1.7-2.3,1.9-3.7c0.1-1.5-0.3-2.9-1-4.2
		c-0.4-0.9-1.1-2.3-2.1-2.7c-0.2,0.2,0.3,0.8,0.4,1c0.2,0.4,0.4,0.9,0.5,1.3c0.3,0.9,0.4,1.8,0.4,2.8
		C108.8,184.9,108.8,185.5,108.7,186z"/>
	<path class="st12" d="M113,166.7c2.3,2.1,5.7,2.5,8.4,1.1c0.9-0.4,1.6-1.1,2.1-1.9c0.3-0.6,0.5-1.3,0.5-1.9
		c0.2-1.4,0.1-2.8-0.4-4.2c1.8,1.9,2.2,4.8,1,7.1c0.3,1.1,0.7,2.2,1,3.3c0.4,1.1,0.5,2.2,0.3,3.4c-0.5,1.7-2,2.9-3.7,3
		c-1.8,0-3.3-1-4-2.7c-0.5-1.2-0.4-2.6-1.3-3.5c-0.5-0.4-1.1-0.8-1.7-1.1C114.4,168.6,113.6,167.7,113,166.7z"/>
	<path class="st9" d="M123.5,176.5c1.1-0.3,2.1-0.9,3-1.7c0.4-0.3,0.7-0.8,0.8-1.3c0-0.1,0.1-0.3,0.2-0.3s0.1,0.1,0.2,0.1
		c0.5,0.6,0.7,1.4,0.4,2.2c-0.2,0.7-0.7,1.4-1.3,1.8c-0.6,0.4-1.4,0.7-2.2,0.8c-1,0.2-2.1,0.1-3.1-0.2c-0.2-0.1-1.3-0.4-1.2-0.6
		s1.2-0.4,1.4-0.4C122.3,176.9,122.9,176.7,123.5,176.5z"/>
	<path class="st12" d="M124.1,179.3c0.8-0.3,1.7-0.8,2.4-1.2c0.8-0.5,1.6-0.9,2.5-1.2c0.3-0.1,0.5-0.1,0.8,0
		c0.2,0.1,0.3,0.3,0.3,0.5c0,0.2,0,0.4-0.1,0.6c-0.6,1.1-1.4,2-2.5,2.7c-0.6,0.5-1.3,0.8-2,1.1c-0.7,0.3-1.5,0.3-2.3,0.2
		c-0.8-0.2-1.4-0.7-1.8-1.4c-0.3-0.6-0.1-1.1,0.5-1C122.7,179.7,123.4,179.6,124.1,179.3z"/>
	<path class="st9" d="M102.4,203c0.9-1.8,2.1-3.5,3.6-4.8c2.2-1.6,5.1-2,7.7-1.1c-1.2-2.1-1.5-4.7-0.7-7c0.4-1.2,1-2.3,1.3-3.5
		c0.4-1.2,0.1-2.5-0.8-3.5c0.3,1.5,0,3-0.8,4.2c-0.8,1.3-2,2.2-3.4,2.7c0.4,1.4,0.7,2.8,0.2,4.1s-2.2,2.1-3.5,3
		c-2.1,1.5-3.5,3.8-3.8,6.4"/>
	<path class="st9" d="M109.7,208.1c-0.2,0.9-0.5,1.9-0.9,2.8c0,0.1,0,0.2,0,0.3c0.1,0.2,0.2,0.3,0.4,0.2c0.2,0,0.3-0.1,0.5-0.3
		c0.3-0.3,0.5-0.6,0.7-1c0.1-0.2,0.2-0.4,0.3-0.6c0.1-0.2,0.3-0.3,0.5-0.3c0.4,0,0.7,0.4,0.7,0.8c0,0.5-0.2,1-0.6,1.4
		c-0.4,0.3-0.9,0.6-1.4,0.7c-1.4,0.3-2.8-0.1-3.9-1c-1-1-1.8-2.2-2.1-3.6c-0.2-0.6-0.3-1.2-0.3-1.8c0-0.6,0.2-1.2,0.5-1.7
		c0.5-0.7,1.3-1.1,2.2-1.2c1.1-0.2,2.2,0,3.1,0.5c1,0.7,1.7,1.7,2.2,2.8c0.4,0.8,0.6,1.7,0.7,2.6c0.1,0.9-0.3,1.8-0.9,2.4
		c-0.1,0.1-0.3,0.2-0.5,0.2c-0.2-0.1-0.2-0.3-0.3-0.5c0-0.7,0.1-1.4,0.1-2.1c0-0.7-0.1-1.4-0.3-2c-0.2-0.4-0.8-1.4-1.4-1.3
		c0,0.1,0.3,0.4,0.3,0.6c0.1,0.2,0.2,0.4,0.2,0.7C109.8,207.1,109.8,207.6,109.7,208.1z"/>
	<path class="st9" d="M112,215.4c0.4,0.6,0.9,1,1.2,1.6c0.4,0.8,0.7,1.6,0.7,2.5c0,0.9,0.1,1.8,0.2,2.6c0.1,0.6,0.3,1.3,0.8,1.7
		c0.3,0.3,0.7,0.4,1,0.7c0.3,0.2,0.4,0.6,0.4,1c-1.1,0.1-2.1-0.4-2.8-1.2c-0.6-0.8-1-1.8-1.2-2.9c0-1.1-0.2-2.1-0.6-3.1
		c-0.4-0.8-1.2-1.5-1.5-2.4c-0.2-0.8-0.3-1.6-0.2-2.4c0-0.1,0-0.1,0-0.2c0.1-0.1,0.1-0.1,0.2-0.1c0.5,0,1.3-0.3,1.2,0.3
		C111.5,214.3,111.7,214.9,112,215.4z"/>
	<path class="st13" d="M103.6,209.2c0,0-3.5,8.1-0.8,15.1s6.9,10,11.4,10.9c2.2,0.5,4.5,0.7,6.7,0.6l2.2,3.2l1.9,2.1
		c0,0-4.7,0.4-6-2.3c0,0-11.1,2-16.1-2.2s-7.8-13.1-7.8-14.2s0.3-5.6,0.5-6.7c0.5-2.6,1.3-5.2,2.2-7.7c0.8-1.8,1.8-3.5,3.1-5
		c0.2-0.3,1.5-1.4,1.5-1.4s-0.4,3.8-0.1,4.8S103.6,209.2,103.6,209.2z"/>
	<path class="st12" d="M117.5,202.1l1.3-3c-0.3-1.6-0.4-3.3-0.3-5c0.3-2.4,2.1-6.5,2.2-8s0.1-2.1,0.1-2.1s0.3-5.5-5.6-2.1
		c1,0.7,1.6,1.9,1.4,3.1c-0.1,1.2-0.5,2.4-1.1,3.4c-0.6,1-1.1,2.2-1.4,3.4c-0.2,1.9,0.1,3.9,0.9,5.7
		C115.6,199.2,116,201.1,117.5,202.1z"/>
	<path class="st12" d="M122.2,184.7c0.1-0.2,0.2-0.4,0.4-0.5c0.2-0.1,0.4-0.1,0.6,0c0.2,0.2,0.2,0.4,0.2,0.6l-0.4,5
		c0,1.3-0.3,2.5-0.7,3.7c-0.4,1-1,1.9-1.7,2.7c-0.4,0.4-0.6,0.6-0.7-0.1c0-0.5,0-1.1,0-1.6c0-2.2,0.4-4.3,1-6.4
		C121.2,186.9,121.6,185.8,122.2,184.7z"/>
	<path class="st12" d="M126.1,185.9c0-0.3,0.2-0.7,0.5-0.9c0.3-0.1,0.7-0.1,0.9,0.1c0.3,0.2,0.5,0.4,0.6,0.7c0.1-1.6,0.5-3.3,1-4.8
		c0.5-1.6,1.6-2.9,3.1-3.8c0.6-0.3,1.3-0.5,1.7,0c0.3,0.4,0.4,0.9,0.4,1.3c0.1,0.9,0.4,1.7,1,2.4c0.3,0.3,0.6,0.6,0.5,1
		s-0.5,0.6-0.9,0.7c-2.6,1.2-4.9,2.9-6.9,5c-1.1,1-2.1,2-3.2,2.9c0.3-0.7,0.4-1.4,0.5-2.1C125.7,187.7,125.9,186.8,126.1,185.9z"/>
	<path class="st12" d="M138.3,181.1c-0.5-0.9-0.9-1.8-1.2-2.8c-0.1-0.4-0.1-0.7,0-1.1c0.2-0.4,0.6-0.8,1-1l1.8-1.2
		c0.3-0.2,0.6-0.4,1-0.3c0.5,0.1,0.7,0.6,0.9,1c0.6,1.1,1.3,2.1,2.2,3c0.1,0.1,0.2,0.2,0.1,0.3s-0.1,0.1-0.2,0.1
		c-2,0.8-4.1,1.5-6.2,2"/>
	<path class="st12" d="M143.4,171c0.5-0.6,1.1-1.1,1.8-1.6c1.7-1.4,2.9-3.2,4.8-4.2c0.4-0.2,0.9-0.4,1.4-0.4c0.5,0,1,0.2,1.3,0.6
		c0.3,0.4,0.4,0.9,0.3,1.4c0.1,2.3-0.4,4.7-1.5,6.7c-0.7,1.3-1.8,2.2-3.2,2.8c-1,0.3-2,0.3-3.1,0.1c-0.7-0.1-1.3-0.4-1.8-0.8
		C142,174.4,142.4,172.2,143.4,171z"/>
	<path class="st16" d="M107.2,190.4c0.7-0.5,1.2-0.4,1.9-0.9c0.3,0.5,0.4,1.1,0.3,1.7v1.8c0,0.3,0,0.7,0,1c0,0.3-0.2,0.6-0.4,0.9
		c0,0.1-0.1,0.1-0.2,0.1c0,0-0.1,0-0.1-0.1c-0.4-0.5-0.6-1-0.8-1.6c-0.2-0.6-0.3-1.1-0.6-1.7c-0.1-0.2-0.3-0.8-0.2-1"/>
	<path class="st17" d="M131.3,172.8c0.7,0.5,1.4,0.9,2.2,1.2c0.9,0.4,2,0.6,3,0.7c-0.4-1-1-1.9-1.9-2.5c-0.9-0.6-1.8-1.1-2.8-1.5
		c-1-0.5-2.2-0.8-3.3-0.8c-0.1,0-0.4,0-0.4,0.1s0.1,0.3,0.2,0.3c0.1,0.2,0.3,0.4,0.5,0.6c0.3,0.4,0.7,0.7,1.1,1
		C130.4,172.2,130.9,172.5,131.3,172.8z"/>
	<path class="st9" d="M181.6,161.3l-2,1.4c-1.6,0.9-3,2.2-4,3.7c0.1-0.1,0.7-0.2,0.8-0.2l0.9-0.2c0.6-0.1,1.2-0.3,1.8-0.4
		s0.6-0.4,0.9-0.9s0.6-1,0.8-1.6S181.4,161.9,181.6,161.3z"/>
	<path class="st9" d="M183.1,160.8c0.7-1.3,1.9-2.2,3.3-2.6c0.7-0.2,1.5-0.2,2.1,0.1c0.5,0.2,1,0.6,1.3,1.1c0.3,0.5,0.5,1,0.6,1.6
		c0.3,2.2-0.5,4.5-2.3,5.9l0.9-2c-0.4,0.3-0.9,0.4-1.4,0.4c-0.5-0.1-1-0.2-1.4-0.3c-0.6-0.2-1.1-0.4-1.6-0.7
		c-0.5-0.3-0.8-0.9-0.8-1.4c-0.4,0.4-0.4,1-0.2,1.5c0.3,0.5,0.6,0.9,1.1,1.2c0.5,0.4,1,0.7,1.6,0.8c1.1,0.2,2.2-0.2,2.9-1
		c0,0.5-0.2,1-0.6,1.4c-0.4,0.3-0.9,0.5-1.4,0.6c-0.9,0.2-1.9,0.2-2.8-0.2c-1.8-0.8-2.4-2.9-2-4.7
		C182.6,161.8,182.8,161.3,183.1,160.8z"/>
	<path class="st12" d="M181.1,164.2c0.2,0.6,0.4,1.2,0.7,1.8c0.3,0.6,0.7,1.1,1.2,1.5c0.6,0.4,1.2,0.6,1.9,0.7
		c1.5,0.1,3.1-0.3,4.3-1.3c0.8-0.7,1.5-1.5,2.1-2.4l-0.2,0.4c-0.5,1.5-1.4,2.8-2.6,3.7c-0.5,0.4-1.1,0.7-1.6,1
		c-0.2,0.1-0.4,0.3-0.6,0.4c-0.6,0.6-1.3,1.1-2,1.5c-0.7,0.4-1.6,0.6-2.4,0.5c-0.9-0.1-1.6-0.7-1.9-1.5c-0.3-0.9-0.3-1.9,0-2.9
		c0.2-0.5,0.4-1,0.6-1.6c0.2-0.5,0.3-1.1,0.2-1.7C180.9,164.4,181,164.3,181.1,164.2z"/>
	<path class="st9" d="M170.6,176.2c1.1-0.3,2.2-0.9,3-1.6c0.9-0.8,1.6-1.6,2.5-2.4c0.8-0.8,1.9-1.4,3-1.6c-0.2-1.2,0.1-2.4,0.7-3.5
		c0.6-1.1,0.8-2.3,0.5-3.5c-0.7,2-1.7,3.8-3,5.5c-2.2,2.6-5.5,4.1-8.6,5.5l-0.7,0.3c-0.1,0.1-0.5,0.2-0.6,0.3s0.6,0.6,0.8,0.7
		C169,176.3,169.8,176.4,170.6,176.2z"/>
	<path class="st18" d="M171.8,168.7c1.3-1.4,3-2.4,4.8-2.8c0.8-0.2,1.5-0.3,2.3-0.3c-0.3,1.5-1,2.8-2.2,3.8c-1.2,1-2.4,1.8-3.8,2.4
		l-1.8,1c-0.2,0.1-1.4,0.9-1.6,0.7s0.1-0.6,0.2-0.7s0.2-0.5,0.3-0.8c0.2-0.6,0.4-1.1,0.7-1.6C171,169.8,171.4,169.2,171.8,168.7z"/>
	<path class="st19" d="M176.9,169.1c-0.8,0.6-1.6,1-2.5,1.3c-2.3,0.8-4.4,2.3-5.8,4.3c1.5-0.4,2.9-1.1,4.1-2.1
		c1.2-0.9,2.4-2,3.7-2.8c0.6-0.3,1.2-0.8,1.6-1.3c0.7-0.9,0.8-2.2,1.5-3.1c-0.1,0.1-0.6,0.2-0.7,0.2s-0.3,0.1-0.4,0.2
		c-0.1,0.3-0.1,0.8-0.3,1.2C178,167.8,177.5,168.5,176.9,169.1z"/>
	<path class="st20" d="M188.2,169.6c-0.6,0.8-0.8,1.8-1.4,2.6l2.7,2.4c2-1.2,4.2-2,6.5-2.2c-0.5-1-1.2-1.9-2.1-2.7
		c-0.7-0.6-1.5-1-2.4-1.3c-0.4-0.2-0.9-0.3-1.3-0.4c-0.4-0.1-0.7,0.3-1,0.5C188.8,168.8,188.4,169.1,188.2,169.6z"/>
	<path class="st9" d="M195.7,178.5c-0.2,0.6-0.3,1.3-0.2,1.9c0.1,0.6,0.3,1.3,0.5,1.9c-0.5-0.3-0.9-0.8-1-1.3c0-0.2,0-0.3,0-0.5
		c0-0.2-0.1-0.4-0.3-0.4c-0.2,0-0.4,0.1-0.5,0.2c-0.3,0.4-0.4,0.8-0.3,1.3c0.1,0.4,0.3,0.9,0.6,1.2c0.7,0.9,1.7,1.5,2.8,1.5
		c1.1-0.1,2.1-0.6,2.8-1.4c0.8-0.8,1.5-1.7,2.1-2.7c0.4-0.6,0.6-1.3,0.7-2c0.1-0.7,0-1.5-0.4-2.1c-0.4-0.6-1-1.1-1.8-1.3
		c-0.7-0.2-1.5-0.2-2.2-0.1c-1.1,0.1-2.1,0.5-3.1,1.2c-0.9,0.6-1.6,1.6-1.9,2.6c-0.3,1.1-0.2,2.2,0.4,3.2c0.1,0.1,0.2,0.2,0.3,0.3
		c0.2,0,0.4-0.2,0.5-0.5c0.2-0.6,0.4-1.3,0.5-1.9c0-0.5,0.2-0.9,0.5-1.3C195.6,178.4,195.7,178.4,195.7,178.5z"/>
	<path class="st9" d="M187.8,169.9c-0.9,1.5-2.1,2.8-3.6,3.7c-0.1,0.1-0.2,0.2-0.2,0.3c0,0.1,0.1,0.2,0.2,0.2c1.2,0.7,2.6,1.1,3.9,1
		c1.4-0.1,2.7-0.3,4.1-0.7c1.5-0.4,2.9-1,4.2-1.8c-2.3,0.2-4.5,0.8-6.5,1.8L187,172C187.3,171.3,187.6,170.6,187.8,169.9z"/>
	<path class="st9" d="M144.3,177.6c2.3,0.4,4.6-0.3,6.3-1.9c1.8-1.5,3.1-3.6,3.7-5.9c0.4-2.2-0.2-4.5-0.6-6.7
		c1.5,1.3,2.5,3.1,2.9,5.1c1-1.1,2.6-1.5,4-1c1.4,0.5,2.5,1.4,3.3,2.7c0.7,1.3,1.3,2.6,1.7,4c-1.1-1.7-2.7-3.1-4.4-4.1
		c-1.6-0.7-3.5-0.4-4.9,0.8c-0.6,2.3-2.4,4.2-4.2,5.8c-1.1,1-2.4,1.8-3.8,2.2c-1.4,0.4-3,0.1-4.1-1
		C144.2,177.7,144.1,177.6,144.3,177.6z"/>
	<path class="st12" d="M154.4,174.1c0.2-1.1,0.9-2,1.8-2.6c1-0.8,2.2-1.2,3.4-1.1c1.3,0.3,2.5,1,3.4,2c0.8,0.8,1.5,1.8,1.9,2.9
		c0.4,1.1,0.1,2.4-0.8,3.2l2.1-1.7c0.1-0.1,0.3-0.2,0.5-0.2c0.2,0,0.4,0.1,0.5,0.3c0.6,0.6,1,1.2,1.4,1.9c0.4,0.7,0.6,1.5,0.4,2.3
		c0.4-0.8,0.9-1.5,1.4-2.2c0.2-0.3,0.6-0.4,0.9-0.3c0.1,0.1,0.2,0.2,0.3,0.3c2.2,2.2,3.6,5.1,4,8.2c-4.5-2.8-9.1-5.6-14.3-6.8
		c-1.1-0.2-2.1-0.4-3.2-0.8c-0.9-0.3-1.7-0.8-2.3-1.5c-0.2-0.3-0.3-0.6-0.4-0.9c-0.2-0.4-0.5-0.8-0.8-1.3
		C154.4,175.2,154.3,174.6,154.4,174.1z"/>
	<path class="st12" d="M178.6,186.9c0.2,0,0.4,0.2,0.5,0.4c0.3,0.5,0.6,1,1,1.6c0.4,0.7,0.7,1.4,1,2.1c0.3,0.7,0.4,1.5,0.4,2.3
		c0,0.1,0,0.2-0.1,0.2c0,0-0.1,0-0.1-0.1l-2.2-2.4c-0.2-0.2-0.6-0.5-0.5-0.8s0.1-0.2,0.2-0.3c0-0.2,0.1-0.4,0.1-0.6
		C178.9,188.5,178.9,187.6,178.6,186.9z"/>
	<path class="st12" d="M180.4,178.1c0.1-0.9,0.2-1.8,0.1-2.7c0-0.9-0.4-1.8-1-2.5c-0.6-0.7-1.6-0.9-2.5-0.6
		c-0.5,0.3-0.9,0.6-1.2,1.1c-0.8,0.9-1.4,2-1.7,3.2c-0.2,0.6-0.1,1.2,0.1,1.8c0.3,0.5,0.6,0.9,1,1.3c1.9,1.9,3.6,4,4.9,6.4
		c0.4,0.6,0.7,1.3,1,2c-0.6-2.6-1-5.2-0.9-7.8C180.3,179.6,180.4,178.9,180.4,178.1z"/>
	<path class="st12" d="M185,191.4c0-2.4-1.7-4.4-2.5-6.7c-0.9-2.5-0.7-5.2,0.4-7.6c0.3-0.7,1-1.5,1.7-1.3c0.5,0.1,0.9,0.5,1,1
		c0.1,0.5,0.2,0.9,0.1,1.4c-0.1,1.4,0.2,2.8,0.8,4c0.6,1,1.6,1.9,1.9,3s0,2.4-0.1,3.6c-0.1,1.8,0.5,3.6-0.2,5.2
		c-0.4,0.8-0.8,1.5-1.3,2.2c-0.5,0.7-0.8,1.6-0.8,2.4l1.6-2c0.2-0.3,0.5-0.6,0.8-0.5c0.2,0,0.4,0.2,0.5,0.3l1.3,1.3
		c0.4,0.3,0.6,0.7,0.7,1.2c0.1,0.8-0.7,1.4-1.5,1.8c-0.5,0.3-1,0.5-1.5,0.6c-0.5,0.1-1.1,0-1.6-0.3c-0.5-0.5-0.8-1.3-0.7-2l-0.6,0.6
		c-0.5-0.7-0.9-1.4-1.2-2.2c-0.2-0.5-0.2-1.1,0-1.6C184.3,194.4,185,193,185,191.4z"/>
	<path class="st12" d="M190.3,197.6c-0.6-1.9-0.2-3.9,1.1-5.4c0.7-0.8,1.6-1.3,2.6-1.7c1-0.3,2-0.6,3-0.8c-0.6-0.1-1.1-0.8-0.9-1.4
		c-0.7,0.2-1.3,0.6-1.8,1.1c0.2-0.3,0.2-0.7,0-1c-0.2-0.3-0.4-0.6-0.6-0.8c-0.3-0.4-0.7-0.6-1.2-0.7c-0.6,0-1,0.6-1.2,1.2
		c-0.4,1-0.6,2-0.5,3c0,0.1-0.6,0.6-0.7,0.7c-0.2,0.3-0.4,0.5-0.5,0.8c-0.2,0.6-0.4,1.3-0.4,2c-0.1,0.5-0.2,1,0,1.5
		C189.2,196.7,189.7,197.2,190.3,197.6z"/>
	<path class="st21" d="M186,190L186,190"/>
	<path class="st21" d="M187.5,187.3L187.5,187.3"/>
	<path class="st12" d="M187.6,177.4c0.6-0.9,1.5-1.6,2.6-1.9c0.2-0.1,0.3-0.1,0.5,0c0.1,0.1,0.2,0.3,0.1,0.5
		c-0.1,0.9-0.3,1.7-0.3,2.6c-0.1,0.9,0.2,1.7,0.8,2.4c-0.2-1.9,0.6-3.9,2.1-5.1c-0.8,1.5-1.1,3.2-1,4.9c0,1.2,0.5,2.4,1.4,3.2
		c0.8,0.5,1.7,0.8,2.7,0.9c-0.5,0.3-1.1,0.4-1.6,0.2c-0.5-0.1-1-0.4-1.5-0.7c-0.3-0.3-0.7-0.5-1.2-0.6c-0.3,0-0.6,0-0.9,0
		c-2.4,0-4.3-1.9-4.3-4.3C187.1,178.8,187.3,178,187.6,177.4L187.6,177.4z"/>
	<path class="st12" d="M191.4,210.9c1-1.6,1.6-3.5,1.6-5.4c0-0.4-0.1-0.8-0.5-1.1c-0.3-0.1-0.7-0.1-1,0c-0.9,0.2-1.8,0.6-2.6,1.1
		c-0.4,0.2-0.7,0.5-0.9,0.8c-0.2,0.4-0.3,0.8-0.3,1.2c0.1,1,0.2,2.1,0.5,3.1c0.1,0.7,0.2,1.7,0.3,2.4c0,0.3,0.1,0.7,0.2,1
		c0.1,0.4,0.3,0.2,0.5,0C190.1,212.9,190.8,211.9,191.4,210.9z"/>
	<path class="st12" d="M188.9,204.1c0.6-0.1,1.2-0.3,1.8-0.6c0.4-0.1,0.7-0.3,1-0.6c0.3-0.3,0.5-0.7,0.4-1.1
		c-0.1-0.4-0.5-0.7-0.9-0.8c-0.9-0.2-1.8,0.1-2.5,0.7c-0.6,0.5-1,1.1-1.4,1.8c-0.1,0.2-0.2,0.2,0,0.4c0.2,0.1,0.4,0.1,0.5,0.1
		C188.1,204.2,188.5,204.2,188.9,204.1z"/>
	<path class="st9" d="M191.2,198.3c0.7,0.8,1.3,1.7,1.8,2.6c0.6,0.9,0.9,1.9,1.1,3c0,1.6-0.2,3.1-0.6,4.6c-0.1,1.1-0.1,2.2,0,3.4
		c0.2,1.4-1.1,2.7-2.3,3.5c1.4-0.2,2.6-1.1,3.4-2.3c0.7-1.2,1-2.6,0.9-4c-0.1-0.4-0.1-0.9-0.1-1.3c0.1-0.5,0.3-0.9,0.5-1.4
		c0.7-1.6,0.5-3.5-0.3-5C194.7,199.8,193.1,198.6,191.2,198.3z"/>
	<path class="st9" d="M188.4,182.9c0.4,1.1,1.2,1.9,2.3,2.3c1,0.5,2.1,0.7,3.2,1.1c1.2,0.5,2.3,1.1,3.4,1.8c0.5,0.3,0.9,0.6,1.3,1
		c0.4,0.4,0.6,0.9,0.7,1.5c-1.8-0.3-3.7-0.1-5.4,0.5c-1.7,0.6-2.7,2.6-3.2,4.3c-0.1,0.6,0,1.3,0.4,1.8c0.4,0.4,0.9,0.8,1.5,1
		c3.7,1.6,8-0.1,9.5-3.8c0.1-0.1,0.1-0.3,0.2-0.4c0.5-1.1,0.5-2.4-0.1-3.5c-0.7-1.2-2.1-1.9-3.3-2.5c-2.2-1.1-4.3-2.6-6.1-4.4
		C191.3,183.9,189.7,183.7,188.4,182.9z"/>
	<path class="st22" d="M194.2,197.5c-1.1-0.1-1.9-1-1.9-2.1c0-1,0.6-1.9,1.5-2.2c0.1,0.3-0.2,0.8-0.3,1.1c-0.1,0.4-0.1,0.8-0.1,1.1
		C193.5,196.1,193.8,196.9,194.2,197.5z"/>
	<path class="st23" d="M214.4,186.8c-1.2,1.6-1.9,3.6-2,5.6c-0.1,1.5,0.2,3.1,0.1,4.6c-0.1,2-0.8,3.9-2.1,5.4c-0.4,0.6-1,1-1.7,1.1
		c-0.5,0-0.9-0.1-1.4-0.4c-3.3-1.4-7-1.4-10.5-2c-0.6,0-1.2-0.2-1.7-0.5c-0.5-0.3-0.9-0.9-0.9-1.5c1.1,0,2.3-0.2,3.4-0.4
		c1.1-0.3,2.1-0.8,2.9-1.6c0.6-0.7,1-1.6,1.3-2.5c0.4-1.2,0.5-2.6,0.2-3.8c-0.3-1.3-1.2-2.3-2.4-2.9l2.1-1.8"/>
	<path class="st24" d="M199.2,184.4c0.1,0.9,0,1.9-0.2,2.8c0,0.1-0.1,0.2-0.2,0.3c-0.1,0.1-0.3,0.1-0.4,0c-1-0.3-1.8-0.9-2.6-1.6
		c0,0,0-0.1,0-0.1c0-0.1,0.1-0.2,0.2-0.2c1.2-0.3,2.3-0.6,3.5-1"/>
	<path class="st25" d="M198.7,187.6c0.5,0.2,1,0.4,1.4,0.6c-0.1-0.7-0.1-1.4,0.1-2c0.2-0.6,0.3-1.3,0.2-1.9c0-0.2-0.1-0.4-0.3-0.4
		c-0.1,0-0.2,0-0.4,0.1c-0.2,0.1-0.5,0.2-0.6,0.4c-0.1,0.2-0.1,0.4-0.1,0.6l-0.2,1.7C198.9,186.8,198.7,187.6,198.7,187.6z"/>
	<path class="st24" d="M200.2,187.4l6.3,0.1c2.3,0,4.7,0.1,7,0.4c1.1-1.1,2.1-2.3,2.9-3.6c0.2-0.2,0.2-0.5,0.2-0.7
		c-0.1-0.3-0.5-0.5-0.8-0.5c-1.3-0.2-2.5-0.3-3.8-0.2c-2.2,0.1-4.4,0.3-6.6,0.6c-0.4,0-0.8,0.1-1.2,0.3c-0.5,0.2-0.9,0.6-1.3,0.9
		l-2.2,2c-0.2,0.1-0.3,0.4-0.2,0.5"/>
	<path class="st24" d="M212.2,191.9c0.8,3.4,0.3,7-1.5,10c-2-1-4.2-1.7-6.4-2.2c-1.8-0.2-3.6-0.5-5.3-1.1c0.2,0.1,1-0.8,1.1-0.9
		c0.4-0.3,0.7-0.7,0.9-1.2c0.3-0.4,0.5-0.9,0.6-1.4c0.1-0.4,0.2-0.7,0.5-1c0.3-0.2,0.6-0.3,0.9-0.2c0.6-0.1,1.1-0.1,1.6-0.2
		c1.2-0.2,2.4-0.5,3.5-0.8C209.5,192.5,210.8,192.1,212.2,191.9z"/>
	<path class="st9" d="M195.6,265.6c0.8,0.3,1.6,0.7,2.4,1.2c1,0.7,1.5,1.9,1.4,3.1c1.8-0.3,3.6-0.9,5.2-1.8c0.6-0.2,1.1-0.7,1.4-1.2
		c0.1-0.5,0.2-0.9,0.1-1.4l-0.6-5.2c0-0.3-0.1-0.5-0.2-0.7c-0.1-0.2-0.3-0.4-0.6-0.4c-0.2,0-0.4,0.1-0.6,0.2c-2,1.2-4.1,2-6.4,2.4
		c-1.1,0.2-2.3,0.2-3.4-0.2c-0.6-0.2-1.2-0.4-1.8-0.6s-1.1-0.4-1.2-0.2s0.3,0.6,0.4,0.8c0.6,1.1,1.5,2.2,2.4,3
		C194.5,264.9,195,265.3,195.6,265.6z"/>
	<path class="st13" d="M211.1,227c2.4,5.6,3.1,11.8,1.8,17.7c-0.6,3.2-1.8,6.2-3.6,8.8c-1.8,2.7-4.5,4.6-7.6,5.5
		c2.1-2.4,4-5.1,5.6-7.9c-2.5,2.6-5.1,5-7.9,7.2c-0.5,0.5-1.2,0.8-1.9,1c-0.7,0.2-1.4-0.1-1.9-0.7c-0.5-0.9,0.2-2,0.9-2.8l4-4.6
		c1.9-2.1,3.7-4.3,5.3-6.6c1.6-2.3,2.7-5,3.2-7.8c-1.8,4.8-5.1,8.8-8.9,12.3c-2.4,2.2-5.1,4.4-8.3,5.1c0.9-0.2,1.7-0.6,2.5-1.2
		c0.7-0.6,0.9-1.6,0.5-2.5c-0.6-1-2.2-1.1-2.6-2.2c1.6,1.1,3.6,1.2,5.3,0.3c1.7-0.9,3.1-2.1,4.3-3.5c2.4-2.7,4.7-5.6,5.5-9.1
		c-1.6,2-3.5,3.7-5.6,5.1c-1.1,0.9-2.5,1.1-3.9,0.8c2.7-2.1,4.8-4.9,5.8-8.2c1-3.3,1.4-6.7,1-10.1c-0.5-5.1-2.3-10-5.1-14.3
		c-1.1-1.5-2.1-3.1-3-4.8c-0.5-1.2-0.8-2.4-1.1-3.6l4.6,0.9l5.2,7.4l3.5,7l2.1,6.9L211.1,227z"/>
	<path class="st13" d="M184.9,240.9c1.6,0.3,3.1,0.4,4.7,0.9c0.4,0.1,0.8,0.3,1.1,0.6c-1.7,0.5-3.5,0.5-5.2,0.1
		c-1.7-0.5-3.3-1.1-4.9-2c1.2,1.6,2.6,2.9,4.2,4.1l2,1.6c-1.5,0-3-0.6-4.2-1.6c-1.2-1-2.2-2.1-3.1-3.3c-0.2-0.2-0.3-0.4-0.3-0.6
		c0-0.2,0.1-0.3,0.2-0.4c0.2-0.3,0.7-1.2,1.1-1.2s0.9,0.6,1.3,0.8C182.8,240.3,183.8,240.7,184.9,240.9z"/>
	<path class="st13" d="M191.9,256.7c-3.7-0.8-6.9-2.9-9.1-5.9c1.4,1,2.9,1.9,4.4,2.8c0.3,0.2,0.5,0.3,0.8,0.4c0.3,0.1,0.6,0,0.9-0.2
		c-2.3-1.5-4.5-3.1-6.6-4.8c-2.1-1.8-3.8-4-5-6.4c-0.3,0.4-0.7,0.8-1,1.2c0.4,1.2,1.9,1.8,2.1,3.1c0,0.3,0,0.6,0,0.9
		c0,1,0.2,2,0.5,2.9c0.8,1.8,2.1,3.4,3.8,4.5c1.7,1.1,3.4,2,5.3,2.8c-0.1,0.7,0.1,1.4,0.5,2c0.4,0.6,1,0.9,1.7,0.9
		c0.6-0.1,1.2-0.4,1.7-0.8c0.1-0.1,0.2-0.1,0.2-0.2c0.1-0.1,0.1-0.2,0-0.3c-0.1-0.1-0.2-0.2-0.4-0.2c-0.3,0-0.6,0-0.9,0
		c-0.2,0-0.5,0-0.7,0c-0.3-0.1-0.6-0.4-0.7-0.8c-0.1-0.3-0.3-0.7-0.4-1c0.4,0.3,1,0.2,1.3,0.6c0.1,0.2,0.2,0.4,0.4,0.5
		c0.4,0.3,1,0,1.4,0.2c0.2,0.1,0.3,0.3,0.4,0.4c0.5,0.5,1.5,0.1,2.1,0.6c0-0.3-0.2-0.5-0.4-0.7c-0.6-0.6-1.1-1.4-1.5-2.2
		c0-0.1-0.1-0.2-0.2-0.3C192.1,256.8,191.9,256.8,191.9,256.7z"/>
	<path class="st26" d="M191.7,260.4c-0.1,0.1-0.2,0.1-0.2,0.2c0,0.1,0.1,0.3,0.2,0.4c1.1,0.9,2.4,1.5,3.9,1.9
		c-0.4-0.6-1.1-0.8-1.4-1.4c-0.2-0.4-0.4-0.7-0.5-1.1c-0.1-0.3-0.4-0.6-0.8-0.7C192.5,259.6,192,260.1,191.7,260.4z"/>
	<path class="st27" d="M196.2,260.9c1.1-0.1,2.1-0.4,3-0.9c1.9-0.9,3.9-1.6,5.9-2.3c0.1,0.6,0.4,1,0,1.5c-0.5,0.6-1.2,1.2-1.8,1.6
		c-1,0.7-2,1.4-3.1,1.9c-0.7,0.3-1.5,0.6-2.3,0.6c-0.8,0.1-1.6-0.1-2.3-0.5c-0.5-0.3-1-0.7-1.3-1.2c-0.4-0.5-0.7-1-0.9-1.5
		c0.2,0,0.5,0.2,0.7,0.2s0.5,0.2,0.7,0.2C195.2,260.8,195.7,260.9,196.2,260.9z"/>
	<path d="M199.9,270.6l-2,0.2c0.3,1.6,0.9,3.2,1.8,4.6c1.4,2.5,2.9,5.1,5.2,6.9c0.6,0.5,1.3,0.8,2.1,0.9c0.7-0.1,1.3-0.4,1.7-1
		c0.9-1.3,1.4-2.8,1.2-4.4c-0.2-2.3-0.6-4.7-1.3-6.9l-0.6-2.2c-0.1-0.4-0.3-0.7-0.5-1c-0.3-0.2-0.8-0.2-1,0.1l0.1-1.3
		c0,0.4-1.4,1.2-1.7,1.4c-0.7,0.4-1.4,0.8-2.1,1c-0.7,0.3-1.5,0.4-2.3,0.5c-0.5,0-1.8-0.1-2.1,0.2
		C198.9,270.1,199.4,270.3,199.9,270.6z"/>
	<path class="st1" d="M98.2,140.4"/>
</g>
<g id="Слой_6">
	<path class="st28" d="M102.4,201.5c0,0-3.6,2.9-5.7,10.1s-2.2,11.8,1.7,19.2s9,8,9,8c3,3.9,9.4,2.2,9.4,2.2
		c2.1,1.7,8.6,0.6,8.6,0.6c6.9,8.1,19,10.7,19,10.7c20.8,3.1,31.5-8.7,31.5-8.7l2.3,2.9c-1.4,6.4,9.3,11.4,9.3,11.4
		c0,1.8,2,2.8,2,2.8c-0.2,2.8,4.4,7.4,5.5,9.7s2.3,10.1,9,13.8s7.9-2.4,7.3-8.9s-6.3-17.5-6.3-17.5c14.3-9.1,5.8-31.5,5.8-31.5
		c0-12.3-10.8-24.8-10.8-24.8c3.1,0,6.1,0.9,8.7,2.5c5.7-5,3.5-12.2,3.5-12.2c0.1-1.8,4.4-8.2,4.9-8.6c-3.3-1-13.4,0.4-13.4,0.4
		c3.9-4.9,2.4-16.1,2.4-16.1c3.5-5.8,0.1-18.1,0.1-18.1c0.9-2.7,0.4-9.2,0.4-9.2c2.3-10.9-10.1-18.1-10.1-18.1l17.3-6.1h-8.3
		l19.7-14.2l-19.3,5.3l30.2-28.2l-29.9,9.5l16.4-21l-27.1,14.3c-7-32.2-36.7-31.4-36.7-31.4c-1.8-11.9,1.8-31,1.8-31
		c-8.3,4-10.7,24.1-10.7,24.1c-13-23-41.6-28.7-41.6-28.7c11.6,10.9,19.1,36.3,19.1,36.3c-33-20.9-60-7.6-60-7.6
		s18.5,15.7,35.3,46.1c0,0-31.9,4.3-39.9,13.3l39.3,14.3c0,0-12.9,8.1-15.2,10.2h19c0,0-13.2,7.9-5.4,21.5c0.2,2.4,0.6,4.8,1.2,7.1
		c0.8,2.4-1.1,4.6-0.3,9.7c0.7,3.4,1.9,6.7,3.6,9.7l-0.3,1.1c-2.8-1.5-6.3-0.4-7.8,2.4c-3.1,4.9,2.7,9.4,2.7,9.4s1.3,3.4,4.1,3.4
		c1.1,0.2,2.3-0.1,3.3-0.6c0.1,0,0.1,0,0.2,0c0,0,0,0,0,0l1.4,3.8l-1.6,1.5c-1.1,0.6-2.2,1.5-3,2.4
		C103.5,199.8,102.9,200.6,102.4,201.5z"/>
	<path class="st28" d="M105.8,127.6h2.2l-4.3,2.9l7.7-1.5c-3.6-4.4-5.6-9.9-5.8-15.6c-0.2-9.5,5.4-6.9,7.8-3.7c0,0,1.9,7.6,8.9,9.6
		l-3.1-6l6.6,4.7c0,0-6.6-12.7-5.4-22.4l1.4,3.4l-0.4,0.8l2.8,6.6l0.9-1.8c0,0,6.4,8.8,9.1,10.6c0,0-3.8-13.2-3.3-17.4
		c0,0,4.3-2.2,10,6.4c0,0-2.8-11.3-10.2-13.5l0.4-2.4c0,0,9.1,9.1,14.8,15.5s10.9,13.2,10.9,13.2s2.6-19,1.6-29.8
		c0,0,4.4,8,5.8,11.5c0,0-3.6,4.4-3.9,8.1l5-4.9c0,0,3.3,7.9,2.6,11.2c0,0,2.9-3,3.1-14.5c0,0,4.8-1.5,7.1,4.3l2-4.4
		c1.7,6,0.9,12.5-2.2,18l4.5-3.1l-2.8,5.9l5.2-3.8c0,0,2.5-10.1,7.8-10.6s4.6,7.1,4.2,9.1s-3.7,9.8-3.7,9.8l4.7-1.9"/>
	<path class="st29" d="M171.4,84.3v8.6c2.1-1.1,4.7-0.7,6.5,0.8C177.9,93.8,175.2,87.1,171.4,84.3z"/>
	<path d="M108.1,117.8c-0.3-1.1-0.5-2.2-0.6-3.3c-0.2-1.2,0-2.3,0.4-3.4c0.1-0.1,0.2-0.3,0.3-0.4s0.2-0.3,0.4-0.4l0.5-0.2
		c0.2-0.1,0.4-0.1,0.6-0.1c0.6,0.1,1.2,0.4,1.7,0.8c0.9,0.7,1.7,1.6,2.3,2.5c1.3,1.8,2.5,3.7,3.4,5.8c0.5,1,0.9,2.1,1,3.3
		c0.1,1.1-0.1,2.3-0.7,3.3c0.4-1,0.4-2.1,0.2-3.2c-0.2-1.1-0.6-2.1-1.2-3c-1.1-1.9-2.3-3.8-3.6-5.5c-0.6-0.9-1.3-1.7-2.1-2.4
		c-0.3-0.3-0.8-0.5-1.2-0.6c-0.4,0-0.8,0.2-1,0.6c-0.4,1-0.6,2-0.6,3.1C107.9,115.6,108,116.7,108.1,117.8z"/>
	<path d="M109.9,123.2c-0.5-1-0.8-2-1-3c-0.2-1-0.3-2.1-0.3-3.2c0-1.1,0.2-2.2,0.7-3.2c0.4-1,1.2-1.8,2.3-2.2
		c-0.7,0.7-1.3,1.6-1.5,2.5c-0.3,1-0.4,1.9-0.4,2.9C109.6,119.1,109.7,121.2,109.9,123.2z"/>
	<path d="M113.4,118.5c0-0.6,0.3-1.1,0.9-1.4c0.3-0.2,0.7-0.2,1-0.1c0.3,0.1,0.6,0.4,0.6,0.7c-0.2,0-0.5,0-0.7,0.1
		c-0.2,0.1-0.3,0.1-0.4,0.2C114.3,118.2,113.8,118.4,113.4,118.5z"/>
	<path d="M117.5,121.1c-0.6,0.6-1.1,1.3-1.2,2.2c-0.1,0.8-0.1,1.6,0.2,2.4c0.5,1.6,1.4,3,2.7,4c0.6,0.5,1.3,0.9,2.1,1.1
		c0.3,0.1,0.6,0.1,0.9,0c0.2-0.2,0.2-0.5,0.1-0.7c-0.1-0.3-0.3-0.5-0.7-0.7c-0.4-0.2-0.8-0.4-1.2-0.5c-0.8-0.3-1.6-0.5-2.5-0.5
		c0.9-0.2,1.8-0.2,2.6,0c0.4,0.1,0.9,0.2,1.3,0.4c0.2,0.1,0.4,0.2,0.7,0.3c0.2,0.2,0.4,0.4,0.5,0.6c0.1,0.3,0.2,0.6,0.2,0.9
		c0,0.3-0.2,0.6-0.5,0.8c-0.5,0.3-1.1,0.4-1.6,0.3c-0.9-0.2-1.8-0.7-2.5-1.3c-1.4-1.2-2.4-2.8-2.8-4.6c-0.2-0.9-0.2-1.8,0.1-2.7
		C116.1,122.3,116.7,121.6,117.5,121.1z"/>
	<path d="M111.4,129.1c1.1,0.8,2.2,1.5,3.3,2.3s2.3,1.4,3.4,2c1.2,0.6,2.4,1.1,3.7,1.5c1.3,0.4,2.6,0.6,3.9,0.6
		c-1.3,0.4-2.7,0.4-4.1,0.1c-1.4-0.3-2.7-0.7-3.9-1.4C115.3,133,113.1,131.2,111.4,129.1z"/>
	<path d="M118.6,117.9l5.4,12.4l2.7,6.2c0.9,2.1,1.8,4.1,2.9,6.1c0.5,1,1.1,1.9,1.8,2.8c0.3,0.4,0.7,0.7,1.2,1
		c0.5,0.3,0.9,0.6,1.4,0.9c1.9,1.1,3.9,2.1,6,2.9c4.1,1.8,8.5,2.8,12.9,3.1c2.2,0,4.4-0.4,6.4-1.1c2.1-0.8,4.1-1.7,6-2.9
		c1.9-1.1,3.8-2.4,5.6-3.8c1.8-1.3,3.4-2.8,5-4.4c0.4-0.4,0.6-0.8,0.8-1.3c0.2-0.5,0.4-1,0.6-1.6c0.4-1,0.8-2.1,1.1-3.2
		c0.7-2.1,1.4-4.3,2-6.4s1.4-4.3,2.1-6.4s1.5-4.3,2.3-6.4c-1.3,4.3-2.8,8.6-3.9,12.9c-0.6,2.2-1.2,4.4-1.9,6.5
		c-0.4,1.1-0.7,2.1-1.1,3.2c-0.2,0.5-0.4,1.1-0.6,1.6c-0.1,0.3-0.2,0.5-0.4,0.8c-0.2,0.3-0.3,0.5-0.6,0.7c-1.6,1.7-3.3,3.2-5.1,4.6
		c-1.8,1.4-3.7,2.7-5.6,3.9c-1.9,1.2-4,2.2-6.1,3c-2.2,0.8-4.5,1.3-6.8,1.2c-4.5-0.3-9-1.4-13.1-3.2c-2.1-0.9-4.2-1.9-6.1-3
		c-0.5-0.3-1-0.6-1.5-0.9c-0.5-0.3-1-0.7-1.3-1.2c-0.7-0.9-1.3-1.9-1.8-2.9c-1.1-2-1.9-4.1-2.8-6.2l-2.5-6.3
		C121.9,126.3,120.2,122.1,118.6,117.9z"/>
	<path d="M160.6,112.9c1.4-2.5,3.7-4.3,6.4-5.1c1.4-0.3,2.9-0.2,4.2,0.3c0.3,0.1,0.7,0.3,1,0.4c0.3,0.1,0.6,0.3,0.9,0.5
		c0.6,0.4,1.2,0.9,1.6,1.4c0.9,1.1,1.5,2.5,1.7,4c0.2,1.4,0.1,2.8-0.2,4.2c-0.3,1.4-0.7,2.7-1.2,4c-0.5,1.3-1.1,2.5-1.9,3.7
		l-0.1,0.1h-0.1c-1.6,0.3-3.2,0.7-4.8,1c1.5-0.5,3.1-1,4.6-1.5l-0.1,0.1c1.3-2.4,2.1-4.9,2.6-7.6c0.4-2.6,0.2-5.4-1.4-7.4
		c-0.8-1-1.9-1.7-3.1-2.2c-1.2-0.5-2.5-0.7-3.8-0.4C164.5,109.2,162.2,110.7,160.6,112.9z"/>
	<path d="M143.4,112.8c-1.1-1.8-2.9-3.1-5-3.5c-1-0.2-2-0.1-3,0.2c-0.5,0.1-1,0.3-1.4,0.5c-0.5,0.2-0.9,0.5-1.4,0.8l0.1-0.1
		l-1.5,1.5l0.1-0.1c-0.8,1.2-1.3,2.6-1.6,4c-0.3,1.4-0.4,2.9-0.3,4.3c0.2,1.4,0.6,2.9,1.1,4.2c0.2,0.7,0.5,1.4,0.8,2.1
		c0.1,0.3,0.3,0.7,0.5,1c0.1,0.2,0.2,0.3,0.3,0.5c0.1,0.1,0.2,0.2,0.3,0.3h-0.1c1.4,0.1,2.8,0.1,4.2,0.2c-1.4,0.1-2.8,0.1-4.2,0.2
		l0,0l0,0c-0.2-0.1-0.4-0.3-0.5-0.4c-0.1-0.2-0.2-0.3-0.4-0.5c-0.2-0.3-0.4-0.7-0.6-1c-0.3-0.7-0.7-1.4-0.9-2.1
		c-0.6-1.4-1.1-2.9-1.3-4.4c-0.2-1.5-0.1-3.1,0.2-4.6c0.3-1.5,1-3,1.8-4.3l0,0l0,0l1.6-1.5l0,0l0,0c0.5-0.3,1-0.5,1.5-0.8
		c0.5-0.2,1-0.4,1.6-0.5c1.1-0.3,2.2-0.3,3.3-0.1c1.1,0.2,2.1,0.8,2.9,1.5C142.3,111,142.9,111.8,143.4,112.8z"/>
	<path d="M153.3,129.9c-0.8,1.3-1.1,2.9-1,4.4l0.1,1l-0.8-0.6c-0.5-0.4-1-0.9-1.4-1.4c-0.2-0.3-0.4-0.6-0.4-1
		c-0.1-0.4-0.1-0.8,0.1-1.1c0.3-0.7,0.9-1.2,1.7-1.3C152,129.8,152.7,129.8,153.3,129.9z M153.3,129.9c-0.6,0.1-1.2,0.3-1.7,0.5
		c-0.5,0.2-0.8,0.5-1,1c-0.2,0.9,0.7,1.9,1.5,2.5l-0.8,0.4c0-0.9,0.2-1.7,0.5-2.5C152.1,131.1,152.6,130.4,153.3,129.9z"/>
	<ellipse cx="145.1" cy="123.3" rx="2.6" ry="2.9"/>
	<ellipse cx="160.5" cy="122.8" rx="2.4" ry="2.8"/>
	<path d="M193,123.7c-1.1,2.9-3,5.5-5.4,7.5c-1.2,1-2.5,1.8-4,2.4c-1.4,0.6-3,0.9-4.6,0.8c0.7-0.3,1.5-0.4,2.2-0.7l1.1-0.4l1-0.5
		c1.3-0.7,2.6-1.5,3.7-2.4c1.2-0.9,2.2-2,3.2-3.1C191.2,126.2,192.1,125,193,123.7z"/>
	<path d="M195,113.8c0.2-1.1,0.2-2.2,0.1-3.3c-0.1-1.1-0.4-2.2-1.3-2.5s-1.8,0.4-2.6,1.2c-0.8,0.8-1.5,1.6-2.1,2.5
		c-0.6,0.9-1.2,1.9-1.8,2.8c-0.6,0.9-1,2-1.4,3c-0.3,1-0.5,2.1-0.4,3.2c0,1.1,0.5,2.2,1.3,3c-0.9-0.7-1.6-1.8-1.7-2.9
		c-0.2-1.2-0.1-2.3,0.1-3.5c0.3-1.1,0.7-2.2,1.3-3.2c0.5-1,1.1-2,1.8-3c0.7-1,1.4-1.9,2.3-2.7c0.4-0.4,1-0.7,1.5-1
		c0.6-0.3,1.3-0.4,1.9-0.2c0.6,0.2,1.1,0.8,1.3,1.4c0.2,0.6,0.3,1.2,0.3,1.8C195.6,111.6,195.4,112.7,195,113.8z"/>
	<path d="M190.4,116.1c-0.8,0.1-1.6-0.1-2.2-0.6c-0.3-0.2-0.6-0.6-0.8-0.9c-0.2-0.4-0.2-0.9,0.1-1.2c0.1,0.3,0.3,0.6,0.6,0.8
		c0.2,0.2,0.5,0.4,0.7,0.6C189.4,115.2,189.9,115.6,190.4,116.1z"/>
	<path d="M189.6,110.3c1.1-0.5,2.4-0.4,3.4,0.3c0.5,0.4,0.9,1,1,1.6c0.1,0.6,0.2,1.2,0.1,1.8c-0.1,1.1-0.3,2.3-0.7,3.4
		c-0.4,1.1-0.9,2.1-1.5,3c0.6-2.1,1-4.3,1.2-6.4c0.2-1,0-2-0.6-2.8C191.6,110.5,190.6,110.2,189.6,110.3z"/>
	<path d="M185.4,119.5c0.7,0.2,1.4,0.7,1.8,1.4c0.4,0.7,0.6,1.5,0.5,2.3c-0.2,1.5-0.7,3-1.6,4.2c-0.5,0.7-1.1,1.2-1.8,1.6
		c-0.4,0.2-0.8,0.3-1.2,0.3c-0.5,0-1-0.2-1.3-0.7c-0.1-0.3-0.1-0.7,0.2-0.9c0.1-0.1,0.2-0.2,0.3-0.2c0.1-0.1,0.2-0.1,0.2-0.2
		c0.3-0.2,0.7-0.4,1-0.5c0.6-0.3,1.3-0.6,2-0.8c-0.6,0.4-1.2,0.8-1.8,1.2c-0.3,0.2-0.6,0.4-0.9,0.7l-0.2,0.2c-0.1,0-0.1,0.1-0.1,0.1
		c-0.1,0.1,0,0.1,0,0.1c0.2,0.1,0.4,0.2,0.6,0.1c0.3,0,0.6-0.1,0.8-0.3c0.6-0.3,1-0.8,1.4-1.3c0.8-1.1,1.4-2.4,1.6-3.8
		C187.2,121.7,186.6,120.3,185.4,119.5z"/>
	<path d="M200.7,130.5c0.9,0.6,1.7,1.3,2.4,2.1c0.7,0.8,1.3,1.7,1.8,2.7c1,1.9,1.5,4,1.6,6.1c-0.4-1-0.7-2-1.1-2.9s-0.8-1.9-1.3-2.8
		s-1-1.8-1.5-2.7S201.3,131.4,200.7,130.5z"/>
	<path d="M205.2,131.4c-0.8-0.7-1.8-1.1-2.9-1.1c-1,0-2.1,0-3.1,0.3c-2,0.5-4,1.3-5.9,2.2c-3.7,1.9-7.1,4.5-9.9,7.6
		c-2.8,3.1-5,6.8-6.3,10.7c-0.1,0.5-0.3,1-0.4,1.5s-0.2,1-0.3,1.6c-0.1,1-0.3,2.1-0.4,3.1c-0.2,2.1-0.1,4.2,0.3,6.3
		c-0.6-2-0.9-4.2-0.8-6.3c0-1.1,0.1-2.1,0.2-3.2c0.1-0.5,0.1-1.1,0.2-1.6s0.2-1.1,0.4-1.6c1.2-4.1,3.4-8,6.3-11.2
		c2.9-3.2,6.4-5.8,10.3-7.7c1.9-0.9,4-1.6,6.1-2c1.1-0.2,2.1-0.2,3.2-0.1C203.5,130.1,204.5,130.6,205.2,131.4z"/>
	<path d="M182.8,144.1c-1,1.6-2.1,3.1-3.2,4.6c-0.6,0.7-1.1,1.5-1.7,2.2c-0.6,0.7-1.1,1.5-1.5,2.3c0.1-1,0.4-1.9,0.8-2.7
		c0.4-0.8,1-1.6,1.5-2.4C179.9,146.5,181.3,145.2,182.8,144.1z"/>
	<path d="M192.3,144.7c0.7,0,1.3,0.3,1.8,0.9c0.5,0.5,0.7,1.2,0.6,1.9c-0.3-0.2-0.5-0.4-0.7-0.6s-0.4-0.4-0.6-0.6
		C192.9,145.8,192.6,145.2,192.3,144.7z"/>
	<path d="M185,132.4c-0.6,1.1-1.2,2.3-1.8,3.4l-1.9,3.4c-0.6,1.1-1.2,2.2-1.9,3.4s-1.2,2.3-1.8,3.5c0.2-1.3,0.5-2.6,1-3.8
		c0.5-1.2,1-2.4,1.7-3.5c0.6-1.1,1.3-2.2,2.1-3.3C183.2,134.4,184.1,133.3,185,132.4z"/>
	<path d="M176.6,140.8c0.3,2.6,0,5.3-1,7.8C175.3,146,175.6,143.3,176.6,140.8z"/>
	<path d="M175.6,141.9c-0.4,5.6-2.4,10.9-5.9,15.2c-0.5,0.5-0.9,1-1.4,1.5s-1,1-1.5,1.4c-1.1,0.9-2.2,1.7-3.3,2.4
		c-2.3,1.4-4.8,2.9-7.6,3.1c1.3-0.3,2.6-0.8,3.8-1.5c1.2-0.7,2.3-1.4,3.4-2.2c2.2-1.5,4.2-3.4,6-5.4c1.7-2.1,3.1-4.4,4.2-6.8
		C174.3,147.2,175.1,144.6,175.6,141.9L175.6,141.9z"/>
	<path d="M155.8,154.9c0.6-0.7,1.3-1.3,2.1-1.8c0.8-0.5,1.7-0.8,2.6-0.9c-0.6,0.7-1.3,1.3-2.1,1.8
		C157.6,154.4,156.8,154.7,155.8,154.9z"/>
	<path d="M147.2,153.1c0.6,0,1.2,0.3,1.7,0.6c0.5,0.4,0.9,0.9,1.1,1.4c-0.6,0-1.2-0.3-1.7-0.6C147.9,154.2,147.5,153.7,147.2,153.1z
		"/>
	<path d="M148.1,164.2c-3.6-1.4-6.9-3.6-9.6-6.5c-1.3-1.4-2.5-3-3.4-4.8c-0.5-0.8-0.9-1.7-1.3-2.6c-0.2-0.5-0.3-0.9-0.4-1.4
		c-0.1-0.5-0.2-1-0.1-1.5c0.1,0.9,0.4,1.9,0.9,2.7c0.4,0.8,0.9,1.6,1.5,2.4c1,1.6,2.2,3.1,3.5,4.5c1.3,1.4,2.7,2.7,4.2,3.9
		C144.9,162.1,146.4,163.2,148.1,164.2z"/>
	<path d="M98.3,137.7c0.8-1.5,2-2.8,3.5-3.5c1.6-0.7,3.3-1.1,5-1c3.4,0.2,6.7,1.2,9.6,3c2.9,1.7,5.4,4.2,7.2,7.1
		c0.9,1.4,1.6,2.9,2.3,4.5c0.3,0.8,0.6,1.6,0.8,2.4c0.2,0.8,0.4,1.6,0.4,2.5c-0.3-1.6-0.8-3.2-1.6-4.6c-0.7-1.5-1.6-2.9-2.5-4.3
		c-3.7-5.4-9.7-9-16.2-9.7c-1.6-0.2-3.2,0-4.7,0.6C100.5,135.3,99.2,136.3,98.3,137.7z"/>
	<path d="M125.1,150.2c2.3,2.5,4.3,5.2,5.9,8.2c0.8,1.5,1.5,3.1,2,4.7c0.5,1.7,0.5,3.4,0,5.1c0.1-1.6-0.1-3.3-0.7-4.8
		c-0.6-1.5-1.3-3-2.1-4.4C128.5,156,126.8,153.1,125.1,150.2z"/>
	<path d="M127.6,164.2c1,0.3,1.9,0.7,2.8,1.2c0.9,0.5,1.7,1.1,2.4,1.8c0.7,0.7,1.4,1.6,1.8,2.5c0.5,0.9,0.6,2,0.5,3
		c-0.3-0.9-0.7-1.8-1.2-2.6c-0.5-0.8-1.2-1.5-1.8-2.2c-0.7-0.7-1.4-1.3-2.2-1.9L127.6,164.2z"/>
	<path d="M135.2,165.6c1.2,0.7,2.3,1.5,3.3,2.4c0.5,0.4,1,0.9,1.5,1.4s1,1,1.5,1.4c-0.7-0.1-1.4-0.4-2-0.8c-0.6-0.4-1.1-0.8-1.7-1.2
		C136.8,167.9,135.9,166.8,135.2,165.6z"/>
	<path d="M133.1,155.2c0.2,0.4,0.3,0.8,0.3,1.2c0,0.4-0.1,0.8-0.2,1.2c-0.1,0.4-0.4,0.8-0.6,1.1c-0.3,0.3-0.7,0.5-1.1,0.6
		c0.2-0.3,0.3-0.7,0.5-1c0.1-0.3,0.2-0.6,0.3-0.9C132.4,156.6,132.7,155.9,133.1,155.2z"/>
	<path d="M131.3,146.1c0.4,1,0.6,2,0.8,3c0.2,1,0.2,2.1,0.2,3.1c0,1.1-0.2,2.1-0.5,3.1c-0.3,1-0.9,1.9-1.6,2.6
		c0.4-0.9,0.7-1.9,0.9-2.8c0.2-1,0.3-2,0.3-3C131.4,150.1,131.3,148.1,131.3,146.1z"/>
	<path d="M107,133.6c-0.8,1.4-1.5,2.7-2.2,4.1s-1.3,2.8-1.9,4.2c-0.6,1.4-1,2.9-1.3,4.4c-0.3,1.5-0.5,3.1-0.6,4.6
		c-0.3-1.6-0.3-3.2-0.1-4.8c0.2-1.6,0.6-3.1,1.2-4.6C103.1,138.6,104.8,135.9,107,133.6z"/>
	<path d="M103.4,134.8c0.2,0.7,0.3,1.5,0.3,2.2c0,0.4,0,0.7-0.1,1.1s-0.1,0.7-0.2,1.1c-0.3-0.3-0.5-0.6-0.6-1
		c-0.1-0.4-0.1-0.8-0.1-1.1C102.6,136.2,102.9,135.4,103.4,134.8z"/>
	<path d="M148.6,178.4c2.1-1.1,3.9-2.6,5.3-4.5c1.4-1.8,2.1-4.1,1.8-6.4c-0.1-1.1-0.6-2.1-1.3-3c-0.7-0.9-1.6-1.5-2.7-1.7
		c-0.5-0.1-1-0.1-1.5,0.1c-0.5,0.2-1,0.5-1.4,0.8c-0.8,0.8-1.6,1.7-2.2,2.6c-0.7,1-1.5,1.9-2.4,2.8c-0.6,0.4-1.1,0.5-1.5,0.9
		c-0.2,0.1-0.3,0.4-0.4,0.6c-0.1,0.3-0.2,0.6-0.4,0.9c-0.2,0.3-0.5,0.4-0.7,0.6l-0.6,0.6c-0.4,0.4-0.9,0.8-1.4,1.2
		c-1,0.7-2.3,1-3.5,0.8c-2.4-0.4-4.6-1.4-6.4-3.1c-0.9-0.8-1.7-1.7-2.3-2.7c-0.6-1.1-1.1-2.1-1.6-3.2v-0.1v-0.1
		c0-1.2-0.3-2.5-0.7-3.6c-0.3-1.1-1-2.1-2-2.9c-0.5-0.3-1.1-0.6-1.6-1c-0.5-0.3-1.1-0.6-1.6-0.9c-0.5-0.3-1.1-0.4-1.6-0.4
		c-0.6,0-1.1,0.2-1.7,0.4c-0.6,0.3-1.1,0.6-1.6,0.9c-0.5,0.3-1,0.7-1.3,1.1c-0.7,0.9-1.1,2.1-1.1,3.2c0.1,2.4,1.2,4.7,2.9,6.4
		l0.1,0.1v0.1c0.8,1.4,1.3,2.8,1.7,4.3c0.2,0.8,0.3,1.6,0.3,2.4c0,0.8-0.2,1.6-0.6,2.4c-0.4,0.7-1.1,1.3-1.9,1.6
		c-0.8,0.3-1.6,0.4-2.4,0.2c-1.5-0.3-3-0.9-4.2-1.8l0,0l0,0c-0.9-0.1-1.7-0.3-2.6-0.6c-0.8-0.2-1.7-0.6-2.4-1v-0.1
		c0.9,0.1,1.7,0.2,2.6,0.5c0.8,0.2,1.7,0.5,2.5,0.9h0.1l0,0c1.2,0.8,2.6,1.3,4.1,1.5c0.7,0.1,1.4,0,2-0.3c0.6-0.3,1.1-0.7,1.4-1.4
		c0.5-1.3,0.6-2.8,0.1-4.1c-0.4-1.4-0.9-2.8-1.7-4.1l0.1,0.1c-1-0.9-1.8-2-2.4-3.2c-0.6-1.2-0.9-2.5-1-3.9c-0.1-1.4,0.4-2.8,1.3-3.9
		c0.5-0.5,1-1,1.6-1.3c0.6-0.4,1.1-0.7,1.8-1c0.6-0.3,1.3-0.4,2-0.4c0.7,0,1.4,0.2,2,0.5c0.6,0.3,1.2,0.6,1.7,1c0.6,0.4,1,0.6,1.7,1
		c1.1,0.8,1.9,2,2.2,3.3c0.4,1.3,0.6,2.6,0.6,3.9v-0.1c0.5,1.1,1,2.2,1.5,3.2c0.6,1,1.3,1.9,2.2,2.7c0.9,0.8,1.8,1.5,2.9,2
		c1,0.5,2.2,0.9,3.3,1c1.1,0.1,2.3-0.2,3.2-0.8c0.5-0.3,0.9-0.7,1.3-1.1l0.6-0.6c0.2-0.2,0.4-0.4,0.6-0.6c0.1-0.2,0.2-0.5,0.3-0.7
		c0.1-0.3,0.3-0.7,0.5-0.9c0.5-0.5,1.1-0.6,1.5-1c0.8-0.8,1.5-1.7,2.1-2.7c0.7-1,1.4-2,2.3-2.8c0.5-0.4,1-0.8,1.6-1
		c0.6-0.2,1.3-0.3,2-0.1c1.3,0.3,2.4,1,3.2,2c0.8,1,1.3,2.2,1.4,3.4c0.2,2.5-0.6,4.9-2.2,6.8c-1.5,1.9-3.5,3.3-5.7,4.3L148.6,178.4z
		"/>
	<path d="M105.1,175.5c0-0.9,0.2-1.8,0.4-2.6c0.2-0.9,0.5-1.7,0.9-2.5c0.4-0.8,0.9-1.6,1.4-2.3c0.6-0.7,1.3-1.3,2.2-1.5
		c-0.6,0.6-1.2,1.2-1.6,2c-0.4,0.7-0.8,1.5-1.2,2.2C106.5,172.4,105.9,174,105.1,175.5z"/>
	<path d="M110,178.9c0.1-0.8,0.4-1.5,0.8-2.2c0.4-0.7,0.8-1.4,1.3-2c0.5-0.6,1.2-1.1,1.9-1.5c0.7-0.4,1.5-0.5,2.4-0.4
		c-0.7,0.3-1.4,0.6-2,1.1c-0.6,0.5-1.1,0.9-1.6,1.5c-0.5,0.5-1,1.1-1.4,1.7L110,178.9z"/>
	<path d="M127.6,169.7c0.9-0.1,1.8-0.1,2.7,0c0.9,0.1,1.8,0.4,2.6,0.8c0.9,0.4,1.6,0.9,2.3,1.6c0.6,0.7,1.1,1.5,1.2,2.5
		c-0.5-0.7-1.1-1.3-1.8-1.9c-0.7-0.5-1.4-0.9-2.2-1.3c-0.8-0.4-1.6-0.7-2.4-0.9L127.6,169.7z"/>
	<path d="M116.4,162.5c0.6-0.5,1.3-1,2-1.3c0.8-0.4,1.7-0.4,2.5,0c0.4,0.3,0.7,0.7,0.8,1.1c0.1,0.4,0.1,0.8,0,1.2
		c-0.2,0.8-0.5,1.5-1,2.2c-0.5,0.7-1.2,1.2-2,1.4c-0.9,0.3-1.8,0.2-2.6-0.2c-0.4-0.2-0.8-0.6-0.9-1.1c-0.1-0.4-0.1-0.9,0-1.3
		C115.4,163.8,115.8,163.1,116.4,162.5z M116.5,162.6c-0.5,0.5-0.8,1.3-0.7,2c0,0.6,0.3,1.1,0.8,1.4c0.6,0.2,1.2,0.3,1.9,0.2
		c0.7-0.1,1.3-0.4,1.8-0.8c0.6-0.5,0.9-1.1,1-1.8c0.1-0.7-0.2-1.3-0.8-1.6c-0.7-0.2-1.3-0.2-2-0.1
		C117.7,161.9,117,162.2,116.5,162.6z"/>
	<path d="M101.6,187.8c0.1,0.3,0.4,0.6,0.7,0.7c0.3,0.1,0.6,0.1,0.8,0c0.5-0.4,0.8-0.9,1.1-1.4c0.4-0.5,0.7-1.2,0.8-1.8
		c0.1-0.7-0.1-1.3-0.5-1.9c-0.4-0.4-0.9-0.6-1.5-0.5c-0.2,0.1-0.5,0.2-0.6,0.4c-0.2,0.2-0.3,0.5-0.4,0.7c-0.2,0.6-0.4,1.2-0.6,1.8
		C101.2,186.5,101.3,187.2,101.6,187.8z M101.5,187.9c-0.3-0.6-0.6-1.3-0.8-2c-0.2-0.8-0.1-1.5,0.2-2.3c0.2-0.4,0.4-0.7,0.7-1
		c0.3-0.3,0.8-0.5,1.2-0.6c0.9-0.1,1.7,0.4,2.1,1.2c0.3,0.7,0.4,1.4,0.4,2.2c0,0.7-0.1,1.5-0.3,2.2c-0.3,0.8-0.9,1.4-1.7,1.6
		c-0.4,0.1-0.9,0-1.2-0.3C101.8,188.5,101.6,188.2,101.5,187.9z"/>
	<path d="M118.4,195.9c-0.2-1.1-0.2-2.1,0.1-3.2c0.2-1,0.5-2.1,0.8-3.1c0.8-1.9,1.3-3.9,1.5-6c0.3,1,0.4,2.1,0.2,3.2
		c-0.2,1.1-0.4,2.1-0.8,3.1C119.5,191.9,118.9,193.9,118.4,195.9z"/>
	<path d="M119.9,177.3c1.3-0.5,2.6-0.7,3.8-1.1c1.2-0.4,2.4-1,3.3-1.8c-0.2,0.7-0.6,1.3-1.2,1.7c-0.5,0.4-1.2,0.8-1.8,1
		C122.7,177.5,121.3,177.6,119.9,177.3z"/>
	<path d="M113,181.7c1.7,2.3,1.2,5.5-1.1,7.2c-0.3,0.3-0.7,0.5-1.1,0.6c0.9-1.1,1.6-2.3,2-3.7C113.2,184.5,113.3,183.1,113,181.7z"
		/>
	<path d="M105.6,191.5c1.2-0.8,2.4-1.8,3.5-2.8c0.5-0.5,0.8-1.1,1-1.7c0.1-0.7,0.1-1.3-0.1-2c-0.3-1.4-0.9-2.8-1.6-4
		c-0.7-1.3-1.8-2.3-3.1-3c1.5,0.3,2.9,1.2,3.8,2.5c0.9,1.3,1.6,2.7,1.9,4.2c0.2,0.8,0.2,1.6,0,2.4c-0.2,0.8-0.7,1.5-1.4,2
		C108.4,190.2,107,190.9,105.6,191.5z"/>
	<path d="M141.9,173.2c0.4,1.1,0.9,2.1,1.6,3.1c0.7,0.9,1.5,1.8,2.4,2.5c-1.3-0.1-2.5-0.8-3.2-1.9
		C141.9,175.9,141.6,174.5,141.9,173.2z"/>
	<path d="M136.3,178c0.3,0.4,0.5,0.8,0.6,1.3c0.1,0.4,0.2,0.9,0.2,1.4c-0.9-0.2-1.4-1-1.2-1.9C136,178.5,136.1,178.2,136.3,178
		L136.3,178z"/>
	<path d="M128.8,184.4c0.1,0.3,0.2,0.7,0.1,1c-0.1,0.3-0.2,0.6-0.5,0.9c-0.5-0.3-0.7-0.9-0.4-1.4
		C128.2,184.7,128.5,184.5,128.8,184.4L128.8,184.4z"/>
	<path d="M125.6,184.8c-0.3,1.1-0.7,2.1-1,3.1s-0.6,2-1,3.1c-0.4-1.1-0.3-2.3,0.1-3.4C124,186.5,124.7,185.5,125.6,184.8z"/>
	<path d="M102.7,201c0.1,0.7,0,1.3-0.1,2c0,0.7,0,1.3,0,2c0.1,1.3,0.4,2.5,1.1,3.6c0.3,0.5,0.8,1,1.2,1.4c0.5,0.4,1,0.9,1.6,1.2
		c1,0.8,2.2,1.4,3.4,1.8l0.4,0.1v0.3c0,0.6,0.1,1.2,0.2,1.8c0.1,0.5,0.3,1.1,0.5,1.5c0.5,0.4,0.9,1,1.1,1.6c0.1,0.7,0.2,1.3,0.1,2
		c0,1.2,0.4,2.3,1,3.3c0.6,1.1,1.6,1.8,2.8,2.1c-1.2-0.1-2.4-0.8-3.1-1.9c-0.8-1-1.3-2.3-1.4-3.6c0-0.6,0-1.2-0.2-1.7
		c-0.1-0.3-0.2-0.5-0.4-0.7c-0.1-0.1-0.2-0.2-0.3-0.3c-0.1-0.1-0.3-0.2-0.4-0.4c-0.4-0.6-0.7-1.2-0.8-1.9c-0.1-0.6-0.2-1.3-0.2-1.9
		l0.4,0.5c-1.4-0.5-2.6-1.1-3.8-2c-0.6-0.4-1.1-0.9-1.6-1.3c-0.6-0.5-1-1-1.4-1.6c-0.7-1.3-1-2.7-1-4.1c0-0.7,0-1.4,0.1-2.1
		C102.1,202.2,102.3,201.6,102.7,201z"/>
	<path d="M106.8,201.2c1.9-0.3,3.8-0.1,5.5,0.7c0.9,0.4,1.7,1.1,2.2,1.9c0.6,0.8,0.9,1.7,1.1,2.7c0.2,1,0.2,1.9,0.1,2.9
		c-0.2,1-0.6,1.9-1.2,2.7c-1,1.2-2.5,1.8-4,1.7c-0.2,0-0.5-0.1-0.7-0.1c-0.3,0-0.5-0.2-0.6-0.5c0.2-0.1,0.5-0.2,0.7-0.1
		c0.2,0,0.4,0,0.6,0c0.4,0,0.8-0.1,1.2-0.2c0.8-0.3,1.5-0.7,2-1.4c0.9-1.4,1.3-3.2,0.9-4.9c-0.1-0.9-0.4-1.7-0.8-2.4
		c-0.5-0.7-1.1-1.3-1.8-1.8c-0.8-0.5-1.6-0.8-2.5-1C108.6,201.3,107.7,201.2,106.8,201.2z"/>
	<path d="M107.9,198c0.5,0,1.1,0.1,1.6,0.3c0.5,0.2,1,0.5,1.4,0.8c0.5,0.4,0.8,0.8,1,1.4c0.2,0.5,0.2,1.1-0.1,1.7
		c-0.1-0.5-0.3-0.9-0.6-1.3c-0.3-0.4-0.6-0.7-0.9-1C109.6,199.2,108.8,198.7,107.9,198z"/>
	<path d="M113.2,196.6c0.6,0.4,1.1,0.8,1.4,1.4c0.4,0.6,0.7,1.2,0.8,1.9c0.1,0.7,0,1.5-0.3,2.1c-0.3,0.6-0.8,1.2-1.4,1.5
		c0.3-0.5,0.6-1.1,0.7-1.7c0.1-0.6,0.1-1.2,0-1.7C114.2,198.8,113.8,197.7,113.2,196.6z"/>
	<path d="M107.1,207.8c0,0.7,0.2,1.3,0.6,1.8c0.3,0.5,0.6,1,1,1.4c0.2,0.2,0.4,0.2,0.6,0.1c0.3-0.1,0.5-0.3,0.7-0.6
		c0.3-0.5,0.5-1.2,0.4-1.8c0-0.6-0.2-1.2-0.4-1.8c-0.2-0.5-0.5-0.9-1-1.1c-0.2-0.1-0.4-0.1-0.7-0.1c-0.2,0-0.4,0.1-0.6,0.3
		C107.3,206.5,107.1,207.1,107.1,207.8z M107,207.8c0-0.7,0.1-1.4,0.3-2.1c0.2-0.4,0.5-0.7,0.9-0.9c0.4-0.1,0.9-0.1,1.3,0
		c0.8,0.3,1.3,1,1.5,1.8c0.2,0.7,0.2,1.4,0,2.1c-0.2,0.7-0.4,1.3-0.7,1.9c-0.2,0.3-0.4,0.6-0.7,0.9c-0.4,0.3-0.9,0.3-1.3,0.1
		c-0.3-0.2-0.6-0.5-0.8-0.9c-0.2-0.3-0.3-0.7-0.3-1C107,209.1,107,208.4,107,207.8L107,207.8z"/>
	<path d="M108.4,195.5c0.6-0.7,0.9-1.6,0.8-2.5c0-0.9-0.1-1.9-0.2-2.8l-0.1-0.4h0.3c0.7-0.1,1.3-0.2,2-0.4c-0.5,0.5-1.1,0.9-1.9,1.2
		l0.3-0.5c0.3,1,0.5,2,0.4,3c0,0.5-0.2,1.1-0.4,1.6C109.4,195.1,108.9,195.4,108.4,195.5z"/>
	<path d="M188.7,215.7c0.1,15-8.9,28.6-22.6,34.5c-4.5,1.9-9.4,2.9-14.3,2.8c-9.9,0-19.4-3.9-26.4-10.9c-0.8-0.9-1.6-1.9-2.3-2.8
		s-1.4-2-2.1-3s-1.3-2.1-1.9-3.1s-1.1-2.2-1.6-3.3c-5.8-13.9-2.7-29.9,7.8-40.6c3.5-3.5,7.6-6.2,12.1-8.1
		c13.9-5.9,30.1-2.6,40.6,8.2C184.9,196.4,188.7,205.9,188.7,215.7z M188.6,215.7c0-9.7-4-19.1-11-25.8
		c-6.9-6.7-16.2-10.5-25.8-10.5c-20.2,0-36.6,16.4-36.6,36.5c0,4.7,0.9,9.4,2.7,13.8c0.5,1.1,1,2.2,1.5,3.3s1.2,2.1,1.8,3.1
		c0.7,1,1.4,1.9,2.2,2.9c0.9,0.8,1.8,1.6,2.6,2.5c6.9,6.8,16.1,10.6,25.8,10.7c9.7-0.1,18.9-3.8,25.9-10.6
		C184.6,234.8,188.6,225.5,188.6,215.7L188.6,215.7z"/>
	<path d="M106.3,238.3c1.3,0.1,2.7,0.1,4,0.2s2.6,0.1,3.9,0s2.6-0.1,3.9-0.3c1.3-0.2,2.6-0.4,3.9-0.8c-1.1,0.7-2.4,1.3-3.7,1.6
		c-1.3,0.3-2.7,0.5-4,0.5C111.6,239.6,108.9,239.2,106.3,238.3z"/>
	<path d="M115.1,241.3c1.2-0.7,2.6-1.2,3.9-1.5c0.7-0.2,1.3-0.4,2-0.5s1.4-0.2,2.1-0.4c-0.5,0.5-1.1,0.9-1.8,1.2
		c-0.6,0.3-1.3,0.5-2,0.7C117.9,241.1,116.5,241.3,115.1,241.3z"/>
	<path d="M210.3,223.5c0.4,3.3,0.3,6.7-0.3,10c-0.6,3.3-1.8,6.6-3.6,9.4c-0.9,1.4-2.1,2.7-3.3,3.9l-3.7,3.3
		c-1.3,1.1-2.4,2.2-3.8,3.2c-0.7,0.5-1.5,0.8-2.4,0.9c-0.8,0.1-1.7,0.2-2.5,0.2c1.6-0.4,3.4-0.4,4.6-1.5s2.4-2.2,3.6-3.4
		s2.4-2.3,3.6-3.4c1.2-1.1,2.3-2.3,3.1-3.7c1.8-2.8,3-5.8,3.7-9c0.4-1.6,0.6-3.2,0.8-4.9C210.2,226.8,210.3,225.2,210.3,223.5z"/>
	<path d="M177.7,245.5c1.9,1.5,3.6,3.1,5.4,4.6c0.9,0.8,1.8,1.5,2.7,2.2s1.9,1.4,2.9,2.1c-2.3-0.7-4.4-1.9-6.2-3.5
		c-0.9-0.8-1.8-1.6-2.6-2.5C179,247.5,178.3,246.6,177.7,245.5z"/>
	<path d="M178.9,240.7c1.2,1,2.2,1.9,3.4,2.8c0.6,0.5,1.1,0.9,1.7,1.3s1.2,0.8,1.8,1.3c-1.5-0.2-2.9-0.9-4.1-1.8
		c-0.6-0.5-1.1-1-1.6-1.6C179.5,242.1,179.1,241.4,178.9,240.7z"/>
	<path d="M179.9,239.9c1.7,0.7,3.5,1.3,5.2,1.8c0.9,0.2,1.8,0.4,2.7,0.5c0.9,0.1,1.8,0.2,2.8,0.3c-0.9,0.3-1.9,0.5-2.8,0.5
		c-1.9,0-3.9-0.4-5.6-1.4C181.3,241.2,180.5,240.6,179.9,239.9z"/>
	<path d="M181,238.2c0.5-0.1,1-0.1,1.5,0c0.2,0,0.4,0.1,0.7,0.2c0.3,0.1,0.5,0.2,0.8,0.3c-0.4,0.4-1,0.6-1.6,0.5
		c-0.3,0-0.5-0.1-0.8-0.3C181.3,238.8,181.1,238.5,181,238.2z"/>
	<path d="M207.6,233.1c0.5,1.4-0.1,3-1.4,3.8C206.3,235.6,206.8,234.3,207.6,233.1z"/>
	<path d="M189.5,247.5c2.9-0.1,5.8,0.7,8.1,2.4c-1.4-0.2-2.8-0.5-4.1-0.9C192.1,248.6,190.8,248.1,189.5,247.5z"/>
	<path d="M188.4,259.7c0.5,0.6,1.3,0.9,2.1,0.9c0.4-0.1,0.7-0.2,1-0.4c0.3-0.2,0.6-0.4,0.8-0.7l0.1-0.2l0.3,0.1
		c1.2,0.4,2.4,0.8,3.6,1.2H196c0.8-0.3,1.6-0.5,2.5-0.8s1.6-0.5,2.4-0.8l2.5-0.8c0.8-0.2,1.6-0.5,2.4-0.9c-0.7,0.5-1.4,1-2.2,1.4
		c-0.8,0.4-1.6,0.8-2.4,1.1s-1.6,0.7-2.4,1s-1.6,0.5-2.5,0.8l-0.2,0l-0.2-0.1c-1.2-0.4-2.3-0.9-3.5-1.4l0.4-0.1
		c-0.3,0.3-0.7,0.6-1.1,0.8c-0.4,0.2-0.8,0.2-1.3,0.3C189.7,260.9,188.9,260.4,188.4,259.7z"/>
	<path d="M206.5,251.8c-0.3,1-0.8,2-1.3,2.9c-0.5,0.9-1.2,1.7-1.9,2.5c-0.7,0.8-1.5,1.5-2.4,2.1c-0.9,0.6-1.9,1-2.9,1.2
		c0.9-0.5,1.7-1.1,2.5-1.8c0.7-0.7,1.5-1.4,2.1-2.1c0.7-0.7,1.3-1.5,2-2.3L206.5,251.8z"/>
	<path d="M190.2,258c0.7,0.4,0.9,1.2,0.6,1.9c0,0.1-0.1,0.1-0.1,0.2c-0.4-0.2-0.6-0.5-0.7-1C189.8,258.8,189.9,258.3,190.2,258z"/>
	<path d="M192.6,259.7c-0.4,0.1-0.8,0.1-1.2,0c-0.4-0.1-0.7-0.4-1-0.7c0.2-0.2,0.4-0.3,0.7-0.3c0.2,0,0.4,0,0.6,0.1
		C192.1,258.9,192.5,259.2,192.6,259.7z"/>
	<path d="M191.5,260.7c1.1,0.7,2.3,1.3,3.6,1.6c0.6,0.2,1.2,0.3,1.9,0.3c0.6,0.1,1.3,0,1.9-0.1c1.3-0.2,2.4-0.7,3.5-1.4
		c0.6-0.4,1.1-0.7,1.6-1.1c0.5-0.4,1-0.8,1.5-1.4c-0.6,1.2-1.5,2.3-2.6,3.1c-1.1,0.9-2.4,1.5-3.8,1.8c-1.4,0.2-2.9,0.1-4.2-0.5
		C193.5,262.6,192.4,261.8,191.5,260.7z"/>
	<path d="M191.5,261.5c0.7,0.9,1.4,1.8,2.2,2.6c0.7,0.9,1.3,1.9,1.8,3c0.2,0.5,0.6,0.9,0.9,1.4c0.3,0.4,0.8,0.6,1.2,0.8
		c1,0.3,2.1,0.4,3.2,0.2c2.2-0.3,4.1-1.5,5.3-3.3c0.3-0.4,0.4-0.9,0.4-1.4c-0.1-0.6-0.2-1.1-0.3-1.7c-0.2-1.1-0.6-2.2-0.8-3.4
		c0.5,1.1,0.9,2.1,1.3,3.2c0.2,0.6,0.4,1.1,0.5,1.7c0,0.2,0.1,0.3,0.1,0.5c0,0.2,0,0.3-0.1,0.5c-0.1,0.3-0.2,0.6-0.3,0.9
		c-1.2,2.2-3.4,3.6-5.9,3.9c-1.2,0.2-2.5,0.1-3.6-0.3c-0.6-0.2-1.2-0.6-1.6-1.1c-0.4-0.5-0.7-1-0.9-1.6c-0.4-1-0.9-2.1-1.4-3
		C192.6,263.5,192,262.5,191.5,261.5z"/>
	<path d="M156.9,179.2c-0.9-0.5-1.6-1.3-2.2-2.2c-0.3-0.5-0.5-0.9-0.6-1.5c-0.2-0.5-0.1-1.1,0.1-1.6c0.1,0.5,0.3,0.9,0.6,1.3
		l0.7,1.2C156.1,177.3,156.6,178.2,156.9,179.2z"/>
	<path d="M156.2,168c1.2-1,2.8-1.4,4.3-1.1c0.8,0.2,1.5,0.5,2.1,1c0.3,0.2,0.6,0.5,0.8,0.8c0.2,0.3,0.4,0.6,0.7,0.9l0,0l0,0
		c0.3,0.8,0.6,1.6,1,2.3s0.7,1.5,0.9,2.4l-0.1-0.1c0.9,0.7,2.1,0.7,3.1,0.2c1.1-0.6,2.1-1.2,3.1-1.8c1-0.6,2-1.3,3.1-2s2-1.3,3-2.1
		l0.1,0.1c-0.8,1-1.6,1.9-2.6,2.7c-1,0.8-2,1.6-3,2.2c-1,0.7-2.2,1.3-3.3,1.8c-0.6,0.3-1.3,0.4-2,0.2c-0.7-0.1-1.3-0.5-1.8-1h-0.1
		v-0.1c-0.1-0.8-0.4-1.6-0.7-2.3c-0.3-0.8-0.7-1.5-1.2-2.2l0,0c-0.2-0.2-0.5-0.5-0.7-0.7s-0.5-0.4-0.8-0.6c-0.5-0.4-1.1-0.7-1.8-0.9
		c-0.6-0.2-1.3-0.3-2-0.2C157.6,167.5,156.9,167.7,156.2,168L156.2,168z"/>
	<path d="M178,168.6c0.4-1.1,0.8-2.1,1.3-3.1c0.2-0.5,0.5-1,0.7-1.5c0.2-0.5,0.6-1,0.9-1.5v0.1c0.4-1,0.8-1.9,1.4-2.7
		c0.5-0.9,1.3-1.7,2.1-2.3c0.5-0.3,1-0.5,1.5-0.6c0.3-0.1,0.6-0.1,0.8-0.1c0.3,0,0.5,0,0.8,0.1c1.1,0.2,2.1,0.5,2.9,1.1
		c0.9,0.6,1.6,1.6,1.8,2.7c0.2,1,0.2,2.1-0.1,3.1c-0.2,1-0.5,2-1,2.9c-0.2,0.5-0.6,0.9-0.9,1.3c-0.4,0.4-0.9,0.7-1.5,0.9l0.3-0.2
		l-2,3.5l-0.1-0.4l2.9,2.5h-0.2c2.3-1.1,4.8-1.8,7.3-2.1c1.3-0.2,2.6,0,3.8,0.4c1.2,0.5,2.2,1.5,2.7,2.7c1,2.5,0.5,5.4-1.4,7.4
		c-0.9,0.9-2,1.7-3.2,2.2c-0.6,0.3-1.2,0.5-1.9,0.7c-0.7,0.2-1.4,0.2-2.1,0.1l0.4-0.8c0.7,0.6,1.5,1.1,2.3,1.6
		c0.4,0.2,0.8,0.5,1.2,0.6c0.4,0.2,0.9,0.3,1.4,0.6c1,0.4,1.9,1.2,2.3,2.3c0.3,1,0.4,2.1,0.2,3.1c-0.1,1-0.4,2.1-0.9,3
		c-0.5,1-1.2,1.8-2.1,2.4c-1.8,0.9-3.9,1.3-5.9,1.1l0.3-0.8c0.6,0.6,1.1,1.2,1.6,1.9c0.5,0.7,0.8,1.5,1,2.4c0.1,0.4,0.1,0.9,0,1.4
		c-0.1,0.4-0.2,0.8-0.3,1.2c-0.2,0.8-0.4,1.6-0.7,2.3v-0.2c0.1,1,0.1,2.1-0.1,3.1c-0.1,1-0.5,2-1.1,2.9c-0.3,0.4-0.7,0.8-1.2,1
		c-0.5,0.2-0.9,0.4-1.4,0.5c-1,0.2-2,0.2-3-0.1v-0.1c1,0.2,2,0.2,2.9-0.1c0.5-0.1,0.9-0.3,1.3-0.6c0.4-0.2,0.7-0.6,1-0.9
		c0.5-0.8,0.8-1.7,0.9-2.7c0.1-1,0.1-1.9,0-2.9V208v-0.1c0.2-0.7,0.4-1.5,0.6-2.3c0.1-0.4,0.2-0.8,0.3-1.1c0.1-0.3,0.1-0.7,0-1
		c-0.2-0.7-0.5-1.4-0.9-2c-0.4-0.6-0.9-1.2-1.5-1.8l-0.9-0.8h1.2c1.9,0.2,3.7-0.2,5.4-1c1.5-1.1,2.4-2.7,2.5-4.6
		c0.2-0.9,0.1-1.8-0.1-2.6c-0.3-0.8-1-1.4-1.8-1.8c-0.4-0.2-0.8-0.3-1.3-0.6c-0.5-0.2-0.9-0.4-1.4-0.7c-0.9-0.5-1.7-1.1-2.4-1.8
		l-1.4-1.2l1.9,0.4c1.2,0.1,2.3-0.1,3.4-0.7c1.1-0.5,2.2-1.2,3.1-2c1.8-1.7,2.4-4.4,1.5-6.7c-0.4-1.2-1.3-2.1-2.4-2.6
		c-1.2-0.4-2.4-0.6-3.7-0.4c-2.5,0.3-4.9,1.1-7.2,2.2l-0.1,0.1l-0.1-0.1l-3-2.4l-0.2-0.1l0.1-0.2l1.9-3.6l0.1-0.1l0.2-0.1
		c0.4-0.1,0.7-0.4,1-0.7c0.3-0.3,0.6-0.7,0.8-1.1c0.4-0.9,0.7-1.8,0.9-2.7c0.2-0.9,0.2-1.9,0.1-2.8c-0.2-0.9-0.7-1.7-1.4-2.2
		c-0.8-0.5-1.7-0.9-2.6-1c-0.9-0.2-1.8-0.1-2.6,0.4c-1.5,1.2-2.7,2.8-3.4,4.6l0,0l0,0c-0.3,0.4-0.6,0.9-0.9,1.4
		c-0.3,0.5-0.6,1-0.8,1.5c-0.5,1-1,2-1.5,3L178,168.6z"/>
	<path d="M187.7,206.7c0.4-1.6,2-2.7,3.7-2.4c-0.5,0.5-1.1,1-1.8,1.4C189,206,188.4,206.4,187.7,206.7z"/>
	<path d="M187.2,204c-0.1-0.6,0.1-1.3,0.5-1.8c0.4-0.5,1-0.8,1.7-0.8c-0.2,0.5-0.5,1-0.9,1.5C188.1,203.3,187.7,203.7,187.2,204z"/>
	<path d="M185.9,200.2c-0.4-0.5-0.4-1.2-0.1-1.8c0.3-0.6,0.9-0.9,1.5-0.9c-0.2,0.5-0.4,1-0.6,1.4
		C186.4,199.4,186.2,199.8,185.9,200.2z"/>
	<path d="M198.5,189.7c-1.7-0.1-3.5,0.1-5.2,0.5c-1.6,0.4-3,1.5-3.6,3c-0.3,0.7-0.4,1.5-0.3,2.3c0.1,0.8,0.5,1.5,1.2,1.9
		c0.7,0.5,1.4,0.9,2.3,1.1c0.8,0.2,1.7,0.3,2.6,0.3c-1.8,0.5-3.7,0.2-5.3-0.8c-0.9-0.5-1.5-1.4-1.7-2.4c-0.2-1,0-2,0.3-2.9
		c0.3-0.9,0.9-1.7,1.7-2.3c0.8-0.5,1.7-0.9,2.6-1.1C194.9,189.1,196.7,189.2,198.5,189.7z"/>
	<path d="M192.5,186.7c-0.2,0.6-0.4,1.3-0.7,1.9c-0.3,0.6-0.6,1.2-0.9,1.8c-0.6-1.3,0-2.9,1.3-3.5
		C192.3,186.8,192.4,186.7,192.5,186.7z"/>
	<path d="M197.2,187.8c-0.3,0.3-0.6,0.6-1,0.8c-0.4,0.2-0.8,0.3-1.3,0.3c0-0.5,0.4-1,0.8-1.2C196.2,187.5,196.7,187.5,197.2,187.8z"
		/>
	<path d="M193.1,193.3c-0.5,0.9-0.7,1.9-0.4,2.9c0.1,0.5,0.4,0.9,0.9,1.1c0.5,0.2,1,0.2,1.5-0.1c0.8-0.5,1.1-1.5,0.8-2.4
		c-0.3-0.9-1.2-1.6-2.2-1.6V193c1.2-0.5,2.7,0.1,3.2,1.3c0,0,0,0.1,0,0.1c0.5,1.3-0.2,2.8-1.5,3.2c0,0-0.1,0-0.1,0
		c-0.6,0.1-1.2,0.1-1.8-0.1c-0.6-0.1-1.2-0.5-1.5-1.1c-0.3-0.6-0.4-1.3-0.1-1.9C192.1,194,192.5,193.5,193.1,193.3L193.1,193.3z"/>
	<path d="M183.4,193.7c0.3,0.2,0.5,0.5,0.5,0.8c0,0.3-0.2,0.6-0.6,0.7c-0.3-0.2-0.5-0.5-0.5-0.8
		C182.9,194.1,183.1,193.8,183.4,193.7z"/>
	<path d="M181.3,162.1c-0.1,1.2,0,2.4,0.2,3.5c0.2,1.1,0.8,2,1.7,2.5c0.5,0.2,1,0.4,1.6,0.5c0.6,0.1,1.1,0.1,1.7,0.1
		c1.2-0.1,2.3-0.4,3.4-0.9c-0.9,0.8-2.1,1.4-3.3,1.6c-1.3,0.3-2.6,0.1-3.8-0.4c-0.6-0.3-1.1-0.8-1.5-1.4c-0.3-0.6-0.5-1.2-0.6-1.9
		C180.6,164.5,180.8,163.3,181.3,162.1z"/>
	<path d="M184.4,165c0.5,0.4,1.2,0.7,1.9,0.8c0.5,0.2,1.1,0.2,1.6,0.1c0.6-0.2,1-0.8,1-1.4c0-0.7-0.3-1.3-0.8-1.7
		c-1-0.7-2.2-1-3.4-0.6c-0.2,0.1-0.4,0.2-0.6,0.4c-0.1,0.1-0.2,0.2-0.2,0.3c0,0.1-0.1,0.3-0.2,0.4C183.6,164,183.9,164.6,184.4,165z
		 M184.3,165.1c-0.7-0.4-1.1-1-1.3-1.8c-0.1-0.9,0.4-1.7,1.2-2.1c0.8-0.3,1.6-0.3,2.3,0c0.7,0.2,1.4,0.7,1.9,1.3
		c0.4,0.6,0.6,1.3,0.7,2.1c0.1,0.8-0.3,1.6-0.9,2.1c-0.4,0.2-0.8,0.3-1.3,0.2c-0.4-0.1-0.7-0.2-1-0.5
		C185.4,166,184.9,165.5,184.3,165.1L184.3,165.1z"/>
	<path d="M196.9,173.8c-1.2,0.6-2.3,1.4-3.3,2.3c-1,0.8-1.7,1.9-1.9,3.1c0,0.3,0,0.6,0,0.9c0,0.3,0.1,0.6,0.2,0.9
		c0.1,0.6,0.4,1.2,0.7,1.8c0.7,1.1,1.7,2.1,2.8,2.7c-1.4-0.3-2.7-1.1-3.5-2.2c-0.4-0.6-0.8-1.2-1-1.9c-0.1-0.4-0.2-0.7-0.2-1.1
		c0-0.4,0-0.8,0-1.1c0.3-1.5,1.1-2.8,2.4-3.6C194.2,174.7,195.5,174.1,196.9,173.8z"/>
	<path d="M195,180.9c0.1,0.5,0.4,0.9,0.9,1.1c0.4,0.1,0.7,0.2,1.1,0.1c0.5-0.1,0.9-0.3,1.1-0.7c0.2-0.5,0.2-1,0-1.4
		c-0.1-0.4-0.4-0.8-0.8-1c-0.3-0.2-0.7-0.2-1.1-0.1c-0.2,0-0.3,0.1-0.5,0.2c-0.2,0.1-0.3,0.3-0.4,0.4
		C195.1,179.9,194.9,180.4,195,180.9z M194.9,180.9c-0.1-0.5-0.2-1.1-0.1-1.7c0-0.3,0.1-0.6,0.4-0.9c0.2-0.3,0.5-0.5,0.9-0.6
		c0.7-0.2,1.4-0.1,1.9,0.4c0.5,0.4,0.8,1,0.8,1.6c0,0.6-0.1,1.1-0.3,1.6c-0.2,0.6-0.6,1.1-1.1,1.4c-0.3,0.1-0.7,0.2-1,0.1
		c-0.3-0.1-0.6-0.3-0.8-0.5C195.1,182,194.9,181.5,194.9,180.9L194.9,180.9z"/>
	<path d="M192.5,174.8c0.3,0.7,0.1,1.5-0.4,2c-0.5-0.3-0.7-1-0.4-1.5C191.9,175,192.2,174.8,192.5,174.8z"/>
	<path d="M187.2,177.9c-0.1,0.8,0,1.6,0.2,2.3c0.2,0.7,0.6,1.3,1.1,1.9c0.5,0.5,1.1,0.9,1.8,1.2c0.7,0.3,1.5,0.4,2.3,0.4
		c-0.8,0.4-1.6,0.6-2.5,0.4c-1.8-0.3-3.2-1.8-3.4-3.6C186.6,179.5,186.8,178.6,187.2,177.9z"/>
	<path d="M181.9,177.9c0.2,1.6,0.2,3,0.4,4.5s0.5,2.9,0.7,4.5C181.2,184.2,180.7,180.8,181.9,177.9L181.9,177.9z"/>
	<path d="M179,169.5c0.5,0.9,1.1,1.8,1.9,2.6c0.7,0.8,1.6,1.4,2.5,2c-2.3,0.1-4.3-1.7-4.4-4.1C179,169.8,179,169.6,179,169.5
		L179,169.5z"/>
	<path d="M174.2,179.2c1,0.8,2,1.6,3,2.5c1,0.9,1.8,1.9,2.5,3.1c1.4,2.2,2.4,4.7,3.1,7.2c-1.4-2.2-2.6-4.5-4-6.6
		c-0.7-1.1-1.4-2.1-2.2-3.1C175.8,181.3,174.9,180.3,174.2,179.2z"/>
	<path d="M174.1,180.8c0.8,0.2,1.5,0.8,1.9,1.4c0.5,0.6,0.8,1.3,1.1,2.1c0.6,1.5,0.9,3.1,0.9,4.7c-0.7-1.4-1.2-2.8-1.8-4.2
		c-0.3-0.7-0.6-1.4-0.9-2.1C175,182,174.6,181.4,174.1,180.8z"/>
	<path d="M169.4,177.9c0.5,0.7,0.6,1.5,0.5,2.2c-0.1,0.8-0.5,1.5-1.1,2c0-0.7,0-1.4,0.1-2.1C169,179.3,169.1,178.6,169.4,177.9z"/>
	<path d="M161,179.9c0.5-0.5,1.1-0.9,1.8-1.2c0.6-0.4,1.3-0.7,1.9-0.9c-0.2,0.8-0.7,1.4-1.4,1.8C162.6,179.9,161.8,180.1,161,179.9z
		"/>
	<path d="M165.3,173.5c0.6,0.2,0.9,0.8,0.7,1.3c-0.1,0.2-0.2,0.4-0.4,0.6c-0.3-0.2-0.5-0.5-0.5-0.9
		C165,174.2,165.1,173.8,165.3,173.5z"/>
	<path d="M167.1,175.1c0.4,0,0.8,0.1,1.1,0.3c0.3,0.3,0.5,0.6,0.5,1c-0.7,0.2-1.3-0.2-1.5-0.8C167.1,175.4,167.1,175.3,167.1,175.1
		L167.1,175.1z"/>
	<path d="M168.3,174.9c0.7-1.1,1.3-2.2,1.7-3.4c0.2-0.6,0.4-1.2,0.7-1.8c0.3-0.6,0.8-1.2,1.3-1.7c1-0.9,2.2-1.6,3.5-1.9
		c1.3-0.3,2.6-0.5,3.9-0.5c-1.2,0.4-2.5,0.8-3.6,1.3c-2.4,0.8-4.2,2.6-5,5C170.2,173,169.3,174.1,168.3,174.9z"/>
	<path d="M173.3,167.4c1.4-3.5,4.5-6,8.2-6.7c-1.5,1-3,2-4.3,3.1S174.6,166.1,173.3,167.4z"/>
	<path d="M191.9,160.4c0.3-0.4,0.5-0.4,0.7-0.4s0.4,0.2,0.5,0.6c-0.3,0.4-0.5,0.4-0.7,0.4S192.1,160.8,191.9,160.4z"/>
	<path d="M189.6,167.9c0.7-0.2,1.4-0.2,2.1,0c0.7,0.2,1.3,0.5,1.9,0.9c1.1,0.8,1.9,1.9,2.5,3.1c-1.2-0.7-2.1-1.6-3.1-2.3
		C192,168.8,190.8,168.2,189.6,167.9z"/>
	<path d="M200.2,183.6c0.6,0.7,0.8,1.7,0.6,2.6c0,0.2-0.1,0.4-0.1,0.6l-0.1,0.3v0.1l0,0c0-0.1,0-0.2,0-0.3c-0.1-0.2-0.4-0.3-0.6-0.2
		c0,0,0,0,0,0c0,0-0.1,0-0.1,0.1l0,0l0,0c0.3-0.3,0.6-0.6,0.9-1c0.6-0.6,1.3-1.1,2-1.6c0.7-0.5,1.3-1.1,1.9-1.7
		c-0.3,0.8-0.7,1.6-1.3,2.3c-0.6,0.7-1.2,1.2-1.8,1.8c-0.3,0.3-0.6,0.6-0.9,0.9l0,0l0,0c0,0-0.1,0.1-0.1,0.1c-0.3,0.1-0.6,0-0.7-0.2
		c0-0.1,0-0.3,0-0.4l0,0v-0.1l0.1-0.3l0.2-0.6C200.4,185.2,200.4,184.4,200.2,183.6z"/>
	<path d="M139.1,136.1c3.6,1,7.3,1.5,11,1.4c6.5-0.1,14.4-3.5,14.4-3.5s3.4-2.3,3.9,0.8c0.6,2.5-0.3,5.2-2.3,6.9
		c-1.9,1.7-8.2,6-14.7,5.9s-13.4-4.7-13.4-4.7c-1-1.2-1.5-2.8-1.4-4.4C136.5,135.4,139.1,136.1,139.1,136.1z"/>
	<path class="st0" d="M138.4,136.6c4.5,1.2,9.2,1.6,13.8,1.3c4.8-0.5,9.5-1.8,13.9-3.9c0,0,1.6-0.5,1.7,1s-0.2,2.2-0.6,2.5
		c0.1-0.3,0.2-0.6,0.2-0.9c-0.4,1.1-1.4,1.8-2.5,2v-0.9c-0.1,0.6-0.5,1.1-1,1.4c-0.5,0.3-1.1,0.5-1.7,0.7c-6,2.1-12.4,2.7-18.7,1.6
		c-0.9,0-1.7-0.2-2.6-0.5c-0.8-0.3-1.4-1-1.6-1.9l0.1,1.2c-0.6-0.5-1.1-1.1-1.5-1.9c-0.1,0.4,0,0.8,0.2,1.2c-0.5-0.4-0.8-1-0.7-1.6
		C137.4,137.3,137.8,136.8,138.4,136.6z"/>
	<path class="st0" d="M137.9,141.8c0.4,0.6,0.9,1,1.5,1.4c1.6,0.9,3.3,1.6,5,2.1c2.5,1,5.2,1.6,7.9,1.7c3.3-0.1,6.4-1.6,9.3-3.1
		c2.4-1.2,4.8-2.6,6.2-4.9c0.2-0.3,0.3-0.6,0.3-1c-0.1-0.3-0.6-0.6-0.8-0.3s0,0.7,0.2,1c-0.3-0.5-0.9-0.6-1.4-0.2
		c-0.1,0.1-0.2,0.1-0.2,0.2c0.2,0.4,0.3,0.9,0.2,1.3c-0.1-0.5-0.6-0.9-1.2-0.9c-0.5,0-1.1,0.2-1.5,0.5c-6.2,3-13,3.4-20.2,2.4
		c-0.4-0.1-0.7-0.1-1.1-0.1c-0.4,0.1-0.6,0.4-0.6,0.8c0.3-0.6,0-1.3-0.7-1.6c-0.6-0.3-1.3,0-1.6,0.7c-0.1,0.3-0.1,0.5,0,0.8
		c-0.2-0.7-0.1-1.4,0.2-2c-0.1-0.2-0.3-0.2-0.5-0.2l-0.4,0.7c0-0.2,0-0.4-0.1-0.6c0-0.2,0.1-0.4,0.1-0.6c-0.4-0.4-0.6,0.2-0.6,0.5
		C137.6,140.8,137.6,141.4,137.9,141.8z"/>
	<path class="st30" d="M167.7,134.9c-0.2-1.5-1.7-1-1.7-1s-1.2,0.6-3.2,1.4c1.4,0.5,2.3,1.7,2.4,3.2c1-0.3,1.8-1,2.1-2
		c-0.1,0.3-0.2,0.6-0.3,0.9C167.5,137.2,167.9,136.4,167.7,134.9z"/>
	<path class="st30" d="M140.8,140.9c-0.2-1.4,0.5-2.9,1.8-3.5c-1.4-0.2-2.9-0.5-4.3-0.9c-0.5,0.2-0.9,0.8-0.9,1.4
		c-0.1,0.6,0.2,1.2,0.7,1.6c-0.2-0.4-0.3-0.8-0.2-1.2c0.3,0.7,0.8,1.4,1.5,1.9l-0.1-1.2C139.5,139.9,140,140.6,140.8,140.9z"/>
	<path class="st30" d="M140.9,141.2c-0.2-0.2-0.4-0.2-0.6-0.3c-0.7,0-1.3,0.6-1.3,1.3c0,0.1,0,0.2,0,0.3c-0.2-0.7-0.1-1.4,0.2-2
		c-0.1-0.2-0.3-0.2-0.5-0.2l-0.4,0.7c0-0.2,0-0.4-0.1-0.6c0-0.2,0.1-0.4,0.1-0.6c-0.4-0.4-0.6,0.2-0.6,0.5c-0.1,0.5,0,1,0.3,1.4
		c0.4,0.6,0.9,1,1.4,1.4c1.2,0.7,2.5,1.3,3.8,1.7C141.9,144,141.1,142.7,140.9,141.2z"/>
	<path class="st30" d="M168,138c-0.1-0.3-0.6-0.6-0.8-0.3s0,0.7,0.2,1c-0.3-0.5-0.9-0.6-1.4-0.2c-0.1,0.1-0.2,0.1-0.2,0.2
		c0.2,0.4,0.3,0.9,0.2,1.3c-0.1-0.4-0.4-0.7-0.8-0.8c0,1-0.3,2.1-0.7,3c1.3-0.8,2.4-1.9,3.2-3.2C168,138.7,168,138.4,168,138z"/>
	<polygon class="st31" points="142.2,216.8 139.4,215.5 136.8,217.1 137.1,214 134.9,212 137.9,211.4 139.1,208.6 140.5,211.3 
		143.6,211.6 141.5,213.8 	"/>
	<polygon class="st31" points="160,213.6 157.2,212.3 154.6,213.9 154.9,210.9 152.6,208.8 155.6,208.3 156.8,205.5 158.3,208.1 
		161.4,208.4 159.3,210.6 	"/>
	<polygon class="st31" points="150.2,229.8 147.4,228.5 144.8,230.1 145.2,227 142.9,225 145.9,224.4 147.1,221.6 148.6,224.3 
		151.6,224.6 149.5,226.8 	"/>
	<polygon class="st31" points="166.7,227.1 164,225.6 161.3,227 161.9,224 159.8,221.8 162.8,221.5 164.2,218.8 165.5,221.5 
		168.5,222.1 166.3,224.1 	"/>
	<path d="M196.4,122.2l17.3-6.1h-8.3l19.7-14.2l-19.3,5.3l30.2-28.2l-29.9,9.5l16.4-21l-27.1,14.3c-7-32.2-36.7-31.4-36.7-31.4
		c-1.8-11.9,1.8-31,1.8-31c-8.3,4-10.7,24.1-10.7,24.1c-13-23-41.6-28.7-41.6-28.7c11.6,10.9,19.1,36.3,19.1,36.3
		c-33-20.9-60-7.6-60-7.6s18.5,15.7,35.3,46.1c0,0-31.9,4.3-39.9,13.3l39.3,14.3c0,0-12.9,8.1-15.2,10.2H108l-4.3,2.9l7.7-1.5
		c-3.6-4.4-5.6-9.9-5.8-15.6c-0.2-9.5,5.4-6.9,7.8-3.7c0,0,1.9,7.6,8.9,9.6l-3.1-6l6.6,4.7c0,0-6.6-12.7-5.4-22.4l1.4,3.4l-0.4,0.8
		l2.8,6.6l0.9-1.8c0,0,6.4,8.8,9.1,10.6c0,0-3.8-13.2-3.3-17.4c0,0,4.3-2.2,10,6.4c0,0-2.8-11.3-10.2-13.5l0.4-2.4
		c0,0,9.1,9.1,14.8,15.5s10.9,13.2,10.9,13.2s2.6-19,1.6-29.8c0,0,4.4,8,5.8,11.5c0,0-3.6,4.4-3.9,8.1l5-4.9c0,0,3.3,7.9,2.6,11.2
		c0,0,2.9-3,3.1-14.5c0,0,4.8-1.5,7.1,4.3l2-4.4c1.7,6,0.9,12.5-2.2,18l4.5-3.1l-2.8,5.9l5.2-3.8c0,0,2.5-10.1,7.8-10.6
		s4.6,7.1,4.2,9.1s-3.7,9.8-3.7,9.8l4.7-1.9"/>
	<path d="M113.7,168c1,0.7,2.3,1.1,3.5,1.1c1.2,0,2.5-0.2,3.7-0.6c1.2-0.3,2.3-0.9,3.2-1.7c0.9-0.8,1.5-2,1.5-3.3
		c0.4,1.3,0.1,2.8-0.9,3.8c-0.9,1-2.1,1.8-3.5,2.1c-1.3,0.4-2.6,0.6-4,0.4C115.8,169.8,114.5,169.1,113.7,168z"/>
</g>
</svg>
